<?xml version="1.0" encoding="UTF-8" standalone="no"?>
<!DOCTYPE svg PUBLIC "-//W3C//DTD SVG 1.1//EN" "http://www.w3.org/Graphics/SVG/1.1/DTD/svg11.dtd">
<svg width="100%" height="100%" viewBox="0 0 937 1212" version="1.1" xmlns="http://www.w3.org/2000/svg" xmlns:xlink="http://www.w3.org/1999/xlink" xml:space="preserve" xmlns:serif="http://www.serif.com/" style="fill-rule:evenodd;clip-rule:evenodd;stroke-linejoin:round;stroke-miterlimit:2;">
    <g transform="matrix(1,0,0,1,-1115.54,-871.986)">
        <g>
            <path d="M1497.12,1159.46C1457.83,1129.33 1417.29,1085.03 1409,1027C1392.04,908.246 1467,864.555 1524,873C1581.01,881.445 1567.56,946.562 1556,975C1544.44,1003.44 1525.85,1036.39 1555,1047C1584.15,1057.61 1624.42,968.785 1671,935C1717.58,901.215 1759.73,883.092 1781.62,901C1803.51,918.908 1815.27,978.785 1795,994C1774.73,1009.22 1697.1,1015.66 1656,1043C1639.86,1053.73 1647.25,1061.39 1656,1062C1664.74,1062.61 1812.39,1011.73 1822,1083C1831.61,1154.27 1781.53,1154.9 1758,1149C1735.15,1143.27 1704.73,1097.5 1662,1098C1626.51,1098.42 1600.18,1126.64 1621.04,1155.5C1603.77,1154.56 1585.1,1154.2 1564.86,1154.52C1541.12,1154.88 1518.55,1156.58 1497.12,1159.46Z" style="fill:rgb(235,48,39);"/>
            <g transform="matrix(1,0,0,1,-12.1434,-7.48515)">
                <path d="M1577,1162C1757.29,1159.21 1812.88,1209.62 1859,1252C1923.33,1311.1 2026.95,1556.8 2045,1724C2046.66,1739.37 2058.32,1847.39 2062.85,1916.46C2068.22,1998.12 2063.2,2005.19 1993.2,2047.74C1985.28,2052.56 1936.68,2082.1 1885.12,2089.68C1791.26,2103.48 1559.05,2022.1 1429.6,2033.86C1313.37,2044.42 1161.1,2118.74 1132.6,2050.14C1112.85,2002.57 1158.47,1932.71 1166.7,1892.09C1172.11,1865.36 1162.96,1864.91 1169.93,1551.23C1171.34,1488.21 1171.28,1419.01 1216.44,1344.95C1272.71,1252.67 1387.68,1164.93 1577,1162Z" style="fill:rgb(230,252,255);"/>
            </g>
            <path d="M1703.53,1563.25C1714.3,1606.9 1732.34,1693.5 1707.38,1699C1673.92,1706.37 1656.27,1684.31 1656,1649C1655.86,1630.56 1660.15,1601.04 1667.9,1577.15C1679.43,1572.76 1691.5,1568.07 1703.53,1563.25Z" style="fill:rgb(235,48,39);"/>
            <g transform="matrix(0.996398,-0.084803,0.084803,0.996398,-111.437,126.603)">
                <ellipse cx="1434.5" cy="1375" rx="62.5" ry="75"/>
            </g>
            <g transform="matrix(0.976512,-0.215462,0.215462,0.976512,-256.148,408.263)">
                <ellipse cx="1744.5" cy="1379" rx="36.5" ry="48"/>
            </g>
            <path d="M1603,1472C1603,1472 1810.69,1483.23 1811,1506C1811.31,1528.77 1591.12,1605.43 1591,1605C1590.88,1604.57 1566.85,1528.59 1603,1472Z" style="fill:rgb(255,144,17);"/>
        </g>
    </g>
</svg>
