<?xml version="1.0" encoding="UTF-8" standalone="no"?>
<!DOCTYPE svg PUBLIC "-//W3C//DTD SVG 1.1//EN" "http://www.w3.org/Graphics/SVG/1.1/DTD/svg11.dtd">
<svg width="100%" height="100%" viewBox="0 0 3887 1488" version="1.1" xmlns="http://www.w3.org/2000/svg" xmlns:xlink="http://www.w3.org/1999/xlink" xml:space="preserve" xmlns:serif="http://www.serif.com/" style="fill-rule:evenodd;clip-rule:evenodd;stroke-linejoin:round;stroke-miterlimit:2;">
    <g transform="matrix(1,0,0,1,-1957.43,-616)">
        <g transform="matrix(0.960227,0,0,0.872727,-4605.76,78.4)">
            <path d="M10883,936.774L10883,2000.23C10883,2177.27 10752.4,2321 10591.5,2321L7126.59,2321C6965.68,2321 6835.05,2177.27 6835.05,2000.23L6835.05,936.774C6835.05,759.734 6965.68,616 7126.59,616L10591.5,616C10752.4,616 10883,759.734 10883,936.774Z" style="fill:rgb(0,62,71);"/>
        </g>
        <g transform="matrix(1,0,0,1,1051.34,-135.904)">
            <path d="M1497.12,1159.46C1457.83,1129.33 1417.29,1085.03 1409,1027C1392.04,908.246 1467,864.555 1524,873C1581.01,881.445 1567.56,946.562 1556,975C1544.44,1003.44 1525.85,1036.39 1555,1047C1584.15,1057.61 1624.42,968.785 1671,935C1717.58,901.215 1759.73,883.092 1781.62,901C1803.51,918.908 1815.27,978.785 1795,994C1774.73,1009.22 1697.1,1015.66 1656,1043C1639.86,1053.73 1647.25,1061.39 1656,1062C1664.74,1062.61 1812.39,1011.73 1822,1083C1831.61,1154.27 1781.53,1154.9 1758,1149C1735.15,1143.27 1704.73,1097.5 1662,1098C1626.51,1098.42 1600.18,1126.64 1621.04,1155.5C1603.77,1154.56 1585.1,1154.2 1564.86,1154.52C1541.12,1154.88 1518.55,1156.58 1497.12,1159.46Z" style="fill:rgb(235,48,39);"/>
            <g transform="matrix(1,0,0,1,-12.1434,-7.48515)">
                <path d="M1577,1162C1757.29,1159.21 1812.88,1209.62 1859,1252C1923.33,1311.1 2026.95,1556.8 2045,1724C2046.66,1739.37 2058.32,1847.39 2062.85,1916.46C2068.22,1998.12 2063.2,2005.19 1993.2,2047.74C1985.28,2052.56 1936.68,2082.1 1885.12,2089.68C1791.26,2103.48 1559.05,2022.1 1429.6,2033.86C1313.37,2044.42 1161.1,2118.74 1132.6,2050.14C1112.85,2002.57 1158.47,1932.71 1166.7,1892.09C1172.11,1865.36 1162.96,1864.91 1169.93,1551.23C1171.34,1488.21 1171.28,1419.01 1216.44,1344.95C1272.71,1252.67 1387.68,1164.93 1577,1162Z" style="fill:rgb(230,252,255);"/>
            </g>
            <path d="M1703.53,1563.25C1714.3,1606.9 1732.34,1693.5 1707.38,1699C1673.92,1706.37 1656.27,1684.31 1656,1649C1655.86,1630.56 1660.15,1601.04 1667.9,1577.15C1679.43,1572.76 1691.5,1568.07 1703.53,1563.25Z" style="fill:rgb(235,48,39);"/>
            <g transform="matrix(0.996398,-0.084803,0.084803,0.996398,-111.437,126.603)">
                <ellipse cx="1434.5" cy="1375" rx="62.5" ry="75"/>
            </g>
            <g transform="matrix(0.976512,-0.215462,0.215462,0.976512,-256.148,408.263)">
                <ellipse cx="1744.5" cy="1379" rx="36.5" ry="48"/>
            </g>
            <path d="M1603,1472C1603,1472 1810.69,1483.23 1811,1506C1811.31,1528.77 1591.12,1605.43 1591,1605C1590.88,1604.57 1566.85,1528.59 1603,1472Z" style="fill:rgb(255,144,17);"/>
        </g>
        <g transform="matrix(22.6272,0,0,22.6272,-1374.34,-5428.6)">
            <path d="M204.61,325.652L205.96,325.752L206.71,325.652L207.41,325.752L209.56,325.552L210.16,325.352L210.51,324.852L210.86,324.252L210.81,323.002L210.86,322.252L210.81,321.652L210.76,320.852L210.86,320.252L210.76,319.502L210.81,318.802L210.76,318.202L210.81,317.502L210.76,316.802L210.86,316.102L210.86,314.802L211.21,314.202L212.16,314.052L212.41,314.702L212.76,316.002L212.81,316.702L213.01,317.402L213.31,318.052L213.51,318.752L213.81,319.402L214.06,320.102L214.51,320.602L214.81,321.252L215.26,321.802L215.66,322.402L216.11,322.902L216.71,323.402L217.21,323.802L217.81,324.152L218.91,324.952L220.31,325.452L220.96,325.602L221.56,325.752L223.01,325.802L223.71,325.552L224.16,324.852L224.66,323.502L224.76,322.952L224.86,322.352L225.01,321.702L225.06,321.052L225.26,319.652L224.96,318.902L224.31,318.552L222.86,317.902L222.31,317.652L221.76,317.152L220.86,316.152L220.46,315.502L220.11,314.852L219.76,314.252L219.51,313.502L219.26,312.152L219.56,311.552L220.46,310.502L220.91,309.902L221.36,309.402L221.71,308.802L222.16,308.252L222.51,307.702L222.76,307.052L223.01,306.352L223.21,305.702L223.36,305.002L223.51,304.352L223.51,303.702L223.61,302.902L223.51,301.552L223.56,300.902L223.51,300.202L223.31,299.402L223.26,298.702L223.11,298.052L222.96,297.452L222.61,296.702L222.31,296.152L221.96,295.552L221.66,294.952L221.21,294.352L220.71,293.852L220.16,293.352L219.71,293.002L219.06,292.602L218.46,292.302L217.76,292.002L217.16,291.652L216.41,291.502L215.86,291.302L215.11,291.052L213.76,290.802L213.01,290.802L212.31,290.652L211.56,290.652L210.81,290.602L208.71,290.702L208.06,290.702L207.26,290.652L204.51,290.652L204.01,291.002L203.61,291.452L203.26,292.052L203.31,293.252L203.21,293.952L203.21,294.652L203.26,295.402L203.26,296.802L203.31,297.502L203.26,298.302L203.31,299.002L203.31,299.702L203.36,300.352L203.31,301.102L203.31,301.702L203.36,302.452L203.31,303.152L203.41,303.852L203.36,304.552L203.41,305.252L203.41,306.002L203.36,306.752L203.41,307.502L203.31,308.202L203.31,308.902L203.41,309.552L203.36,310.252L203.36,311.002L203.31,311.752L203.41,312.352L203.31,313.102L203.36,313.852L203.26,314.502L203.31,315.252L203.31,316.652L203.26,317.402L203.26,318.052L203.36,318.852L203.26,319.452L203.36,320.152L203.26,320.952L203.26,321.552L203.31,322.252L203.21,322.952L203.31,324.302L203.56,324.902L203.96,325.302L204.61,325.652ZM210.81,306.102L210.81,304.752L210.76,304.052L210.76,301.252L210.81,300.502L210.81,299.802L210.76,299.252L210.76,298.452L211.16,297.302L211.71,297.052L213.01,297.102L214.36,297.552L214.86,297.902L215.41,298.252L215.91,298.852L216.11,299.452L216.36,300.152L216.56,300.902L216.56,302.952L216.36,304.452L216.01,305.002L215.56,305.702L215.01,306.052L214.41,306.452L213.71,306.752L213.11,306.852L211.71,306.902L211.11,306.652L210.81,306.102Z" style="fill:rgb(230,252,255);fill-rule:nonzero;"/>
            <path d="M235.56,326.502L236.91,326.552L237.71,326.452L238.36,326.402L238.96,326.152L239.61,326.052L240.21,325.752L240.96,325.402L241.51,324.952L242.56,324.052L243.01,323.652L243.46,323.102L243.81,322.502L244.16,321.852L244.56,321.152L244.81,320.502L245.06,319.952L245.31,319.202L245.56,318.602L245.71,317.852L245.81,317.152L246.06,316.452L246.26,315.052L246.31,314.352L246.46,313.752L246.41,313.002L246.51,312.352L246.51,311.702L246.56,310.902L246.66,310.252L246.66,309.552L246.56,308.052L246.61,307.352L246.56,306.702L246.56,306.002L246.51,305.202L246.46,304.552L246.41,303.852L246.31,303.102L246.21,302.402L246.11,301.652L246.06,301.002L245.86,300.202L245.71,299.552L245.66,298.852L245.36,298.102L245.26,297.502L245.01,296.752L244.66,296.102L244.51,295.452L244.11,294.902L243.81,294.302L243.51,293.752L243.01,293.202L242.61,292.652L242.21,292.052L241.71,291.702L241.26,291.202L240.61,290.852L240.11,290.502L239.46,290.302L238.96,290.052L238.21,289.902L237.56,289.752L235.66,289.702L234.96,289.852L234.16,289.952L233.56,290.202L232.96,290.352L232.31,290.802L231.71,291.152L230.61,292.052L230.21,292.502L229.76,293.052L229.31,293.702L228.91,294.302L228.71,294.952L228.31,295.652L228.11,296.202L227.86,296.902L227.56,297.552L227.36,298.252L227.16,299.002L227.11,299.602L226.91,300.402L226.71,301.002L226.71,301.752L226.51,302.452L226.41,303.102L226.36,303.852L226.31,304.552L226.26,305.352L226.21,306.002L226.21,310.202L226.16,311.002L226.31,311.702L226.36,312.352L226.41,313.102L226.41,313.902L226.46,314.552L226.56,315.302L226.81,316.002L226.81,316.752L227.06,317.452L227.21,318.102L227.41,318.702L228.16,320.802L228.41,321.402L228.81,322.052L229.06,322.552L229.51,323.102L229.91,323.702L230.86,324.652L231.31,325.002L231.81,325.402L233.01,326.002L234.31,326.302L234.96,326.552L235.56,326.502ZM233.26,309.252L233.26,307.802L233.21,307.152L233.31,306.502L233.36,305.652L233.26,305.002L233.31,304.252L233.46,303.552L233.46,302.852L233.56,302.202L233.76,301.502L233.81,300.802L234.06,300.152L234.26,299.402L234.46,298.752L234.76,298.202L235.01,297.652L235.56,297.152L236.06,296.852L237.26,296.902L237.81,297.252L238.21,297.802L238.81,299.102L238.96,299.652L239.26,300.302L239.26,301.102L239.46,301.752L239.46,302.352L239.61,303.052L239.66,303.802L239.66,304.452L239.71,305.102L239.71,305.902L239.76,306.502L239.81,307.252L239.76,307.902L239.81,309.302L239.76,310.052L239.76,310.802L239.66,311.452L239.71,312.202L239.56,312.952L239.56,314.402L239.41,315.102L239.26,315.752L239.16,316.402L239.11,317.152L238.81,317.802L238.71,318.502L238.41,319.152L238.11,319.602L237.66,320.052L237.21,320.302L235.91,320.352L235.31,319.952L234.86,319.502L234.46,318.852L234.06,317.552L233.86,316.952L233.66,316.202L233.56,315.452L233.46,314.902L233.51,314.202L233.31,313.452L233.36,312.802L233.26,312.052L233.21,311.402L233.21,309.952L233.26,309.252Z" style="fill:rgb(230,252,255);fill-rule:nonzero;"/>
            <path d="M258.51,326.502L259.86,326.552L260.66,326.452L261.31,326.402L261.91,326.152L262.56,326.052L263.16,325.752L263.91,325.402L264.46,324.952L265.51,324.052L265.96,323.652L266.41,323.102L266.76,322.502L267.11,321.852L267.51,321.152L267.76,320.502L268.01,319.952L268.26,319.202L268.51,318.602L268.66,317.852L268.76,317.152L269.01,316.452L269.21,315.052L269.26,314.352L269.41,313.752L269.36,313.002L269.46,312.352L269.46,311.702L269.51,310.902L269.61,310.252L269.61,309.552L269.51,308.052L269.56,307.352L269.51,306.702L269.51,306.002L269.46,305.202L269.41,304.552L269.36,303.852L269.26,303.102L269.16,302.402L269.06,301.652L269.01,301.002L268.81,300.202L268.66,299.552L268.61,298.852L268.31,298.102L268.21,297.502L267.96,296.752L267.61,296.102L267.46,295.452L267.06,294.902L266.76,294.302L266.46,293.752L265.96,293.202L265.56,292.652L265.16,292.052L264.66,291.702L264.21,291.202L263.56,290.852L263.06,290.502L262.41,290.302L261.91,290.052L261.16,289.902L260.51,289.752L258.61,289.702L257.91,289.852L257.11,289.952L256.51,290.202L255.91,290.352L255.26,290.802L254.66,291.152L253.56,292.052L253.16,292.502L252.71,293.052L252.26,293.702L251.86,294.302L251.66,294.952L251.26,295.652L251.06,296.202L250.81,296.902L250.51,297.552L250.31,298.252L250.11,299.002L250.06,299.602L249.86,300.402L249.66,301.002L249.66,301.752L249.46,302.452L249.36,303.102L249.31,303.852L249.26,304.552L249.21,305.352L249.16,306.002L249.16,310.202L249.11,311.002L249.26,311.702L249.31,312.352L249.36,313.102L249.36,313.902L249.41,314.552L249.51,315.302L249.76,316.002L249.76,316.752L250.01,317.452L250.16,318.102L250.36,318.702L251.11,320.802L251.36,321.402L251.76,322.052L252.01,322.552L252.46,323.102L252.86,323.702L253.81,324.652L254.26,325.002L254.76,325.402L255.96,326.002L257.26,326.302L257.91,326.552L258.51,326.502ZM256.21,309.252L256.21,307.802L256.16,307.152L256.26,306.502L256.31,305.652L256.21,305.002L256.26,304.252L256.41,303.552L256.41,302.852L256.51,302.202L256.71,301.502L256.76,300.802L257.01,300.152L257.21,299.402L257.41,298.752L257.71,298.202L257.96,297.652L258.51,297.152L259.01,296.852L260.21,296.902L260.76,297.252L261.16,297.802L261.76,299.102L261.91,299.652L262.21,300.302L262.21,301.102L262.41,301.752L262.41,302.352L262.56,303.052L262.61,303.802L262.61,304.452L262.66,305.102L262.66,305.902L262.71,306.502L262.76,307.252L262.71,307.902L262.76,309.302L262.71,310.052L262.71,310.802L262.61,311.452L262.66,312.202L262.51,312.952L262.51,314.402L262.36,315.102L262.21,315.752L262.11,316.402L262.06,317.152L261.76,317.802L261.66,318.502L261.36,319.152L261.06,319.602L260.61,320.052L260.16,320.302L258.86,320.352L258.26,319.952L257.81,319.502L257.41,318.852L257.01,317.552L256.81,316.952L256.61,316.202L256.51,315.452L256.41,314.902L256.46,314.202L256.26,313.452L256.31,312.802L256.21,312.052L256.16,311.402L256.16,309.952L256.21,309.252Z" style="fill:rgb(230,252,255);fill-rule:nonzero;"/>
            <path d="M271.66,298.802L271.66,300.252L271.71,300.852L271.86,301.602L272.06,302.202L272.26,302.902L272.41,303.552L273.01,304.852L273.51,305.402L273.81,306.052L274.21,306.552L274.71,307.152L275.16,307.702L275.71,308.102L276.26,308.602L277.86,309.952L278.46,310.302L279.11,310.702L279.66,311.102L280.21,311.452L280.86,311.852L281.41,312.352L281.91,312.752L282.56,313.202L282.96,313.752L283.46,314.252L283.86,314.702L284.16,315.402L284.41,315.952L284.51,317.302L284.31,317.952L284.01,318.652L283.71,319.102L283.26,319.652L282.66,319.852L282.11,320.052L280.71,320.052L279.51,319.452L279.16,318.952L278.81,318.302L278.61,317.752L278.41,317.002L278.26,316.352L278.16,315.152L277.96,314.552L277.46,314.002L276.86,313.702L275.51,313.602L274.01,313.602L272.56,313.752L271.96,314.052L271.51,314.402L271.31,315.102L271.26,316.452L271.31,317.052L271.36,317.752L271.56,318.502L271.76,319.152L271.86,319.852L272.16,320.502L272.41,321.202L272.66,321.702L273.11,322.352L273.56,322.952L273.96,323.452L274.51,323.952L275.06,324.352L275.56,324.752L276.26,325.102L276.91,325.402L277.56,325.752L278.91,326.102L279.51,326.152L280.31,326.302L280.91,326.352L282.41,326.252L283.06,326.202L284.46,326.002L285.21,325.852L285.86,325.552L286.46,325.302L287.06,325.002L287.66,324.602L288.31,324.152L288.76,323.802L289.31,323.302L289.66,322.752L290.06,322.202L290.71,320.902L290.91,320.202L291.21,319.552L291.31,318.802L291.41,318.202L291.31,316.752L291.36,315.952L291.31,315.352L291.11,314.552L291.01,313.852L290.76,313.202L290.66,312.602L290.36,311.952L289.96,311.352L289.61,310.702L289.36,310.102L288.91,309.602L288.46,309.002L287.96,308.552L287.51,308.052L286.96,307.652L286.46,307.152L285.81,306.802L285.26,306.402L284.81,306.002L284.21,305.552L283.66,305.202L283.16,304.852L281.96,303.952L281.51,303.452L280.91,303.052L280.36,302.552L279.86,302.052L279.16,300.952L278.86,300.302L278.66,299.752L278.66,299.002L278.61,297.602L278.91,296.952L279.36,296.452L279.96,296.052L281.31,295.902L281.86,296.152L282.51,296.452L282.86,297.052L283.01,297.652L283.21,298.202L283.46,299.502L283.61,300.102L283.96,300.652L284.61,300.852L286.06,301.002L286.76,300.952L288.91,300.952L289.51,300.652L289.86,300.152L290.11,299.552L290.11,297.502L289.91,296.802L289.76,296.152L289.66,295.502L289.46,294.852L289.11,294.202L288.86,293.652L288.51,293.052L288.11,292.452L287.61,291.902L287.21,291.452L286.56,291.152L285.96,290.752L285.46,290.452L284.71,290.202L284.16,289.952L283.51,289.902L282.71,289.802L282.01,289.652L280.76,289.752L280.01,289.802L279.26,289.752L278.56,289.952L277.91,290.052L277.26,290.252L276.71,290.452L276.01,290.752L275.51,291.152L274.81,291.452L274.41,291.902L273.91,292.352L273.46,293.002L273.11,293.452L272.76,294.152L272.41,294.752L272.21,295.402L272.06,296.002L271.86,296.752L271.76,297.352L271.81,298.152L271.66,298.802Z" style="fill:rgb(230,252,255);fill-rule:nonzero;"/>
            <path d="M299.26,325.552L300.61,325.602L301.16,325.702L301.91,325.602L302.56,325.602L303.21,325.702L304.51,325.652L305.06,325.302L305.51,324.902L305.66,324.252L305.81,322.952L305.71,322.252L305.71,321.552L305.76,320.902L305.66,319.502L305.76,318.802L305.71,318.102L305.71,316.752L305.66,316.052L305.76,315.352L305.71,314.602L305.71,313.902L305.76,313.202L305.66,312.552L305.71,311.852L305.66,311.102L305.66,310.402L305.71,309.752L305.71,306.202L305.76,305.552L305.81,304.852L305.76,304.152L305.81,303.452L305.81,302.702L305.71,302.102L305.76,301.352L305.76,300.702L305.71,299.952L305.76,299.352L305.96,297.852L306.46,297.302L307.96,297.202L308.81,297.252L310.21,297.202L310.71,297.102L311.21,296.702L311.56,296.102L311.66,294.652L311.61,293.952L311.66,293.352L311.56,292.002L311.21,291.302L310.76,290.952L310.21,290.652L308.91,290.552L308.16,290.602L307.41,290.502L306.71,290.602L306.06,290.602L305.26,290.502L304.61,290.502L303.86,290.552L303.26,290.602L302.51,290.502L301.86,290.602L301.11,290.502L300.41,290.502L299.66,290.602L298.91,290.602L298.26,290.502L297.56,290.602L296.76,290.552L296.06,290.552L295.41,290.502L294.76,290.552L293.41,290.652L292.76,290.852L292.36,291.352L292.01,291.952L291.96,293.252L292.01,294.052L292.01,294.652L292.11,296.052L292.41,296.702L292.86,297.052L293.46,297.202L295.61,297.202L297.31,297.302L297.86,297.902L298.01,299.352L297.96,300.102L298.01,300.702L298.06,301.352L298.01,302.152L298.06,302.752L297.96,303.452L298.06,304.252L298.01,304.852L298.06,305.602L298.01,306.352L298.01,306.952L297.96,307.652L298.06,308.302L297.96,309.052L298.01,309.702L298.01,310.452L298.06,311.202L298.06,313.252L297.96,314.002L298.01,314.702L297.96,315.352L297.96,315.952L298.01,316.652L297.96,317.452L298.06,318.052L298.06,318.802L298.01,319.452L297.96,320.252L298.01,320.902L297.96,321.552L297.96,322.952L298.06,324.302L298.21,324.902L298.61,325.352L299.26,325.552Z" style="fill:rgb(230,252,255);fill-rule:nonzero;"/>
        </g>
        <g transform="matrix(0.23475,0,0,0.23475,2224.8,335.145)">
            <path d="M4716.84,2285.63L4715.71,2253.96L4712.31,2238.12L4706.66,2222.28L4702.13,2208.7L4699.87,2190.6L4691.95,2177.02L4688.56,2162.32L4680.64,2147.61L4673.85,2132.9L4662.53,2119.32L4654.61,2109.14L4645.56,2094.43L4634.25,2085.38L4622.94,2071.81L4611.62,2061.62L4598.05,2054.84L4584.47,2045.79L4572.03,2040.13L4557.32,2032.21L4543.74,2031.08L4527.9,2025.42L4513.19,2025.42L4481.52,2024.29L4465.68,2026.55L4449.84,2027.68L4435.13,2031.08L4420.42,2036.74L4406.85,2042.39L4392.14,2051.44L4380.82,2059.36L4367.25,2070.68L4354.8,2081.99L4345.75,2091.04L4335.57,2105.75L4326.52,2119.32L4317.47,2131.77L4309.55,2146.48L4303.89,2158.92L4299.37,2175.89L4291.45,2190.6L4285.79,2205.31L4281.27,2220.01L4279,2234.72L4273.35,2251.69L4268.82,2283.37L4266.56,2298.08L4264.3,2315.05L4260.9,2329.76L4260.9,2360.3L4257.51,2377.27L4256.38,2394.24L4255.24,2410.08L4255.24,2440.63L4257.51,2472.31L4255.24,2489.28L4256.38,2505.12L4258.64,2519.83L4257.51,2539.06L4260.9,2553.77L4265.43,2585.44L4266.56,2602.41L4269.95,2619.39L4273.35,2634.09L4277.87,2651.06L4282.4,2665.77L4286.92,2682.74L4291.45,2696.32L4295.97,2711.03L4305.02,2726.86L4309.55,2741.57L4319.73,2754.02L4326.52,2768.72L4357.07,2802.66L4368.38,2811.72L4380.82,2823.03L4392.14,2829.82L4404.58,2837.74L4419.29,2844.53L4432.87,2847.92L4445.31,2850.18L4462.28,2854.71L4475.86,2854.71L4507.54,2856.97L4523.38,2855.84L4550.53,2851.31L4567.5,2846.79L4582.21,2840L4595.78,2833.21L4608.23,2824.16L4620.67,2817.37L4631.99,2803.8L4642.17,2793.61L4653.48,2780.04L4661.4,2769.86L4670.45,2754.02L4678.37,2740.44L4681.77,2724.6L4689.69,2712.16L4695.34,2694.05L4697.61,2680.48L4703.26,2663.51L4706.66,2651.06L4708.92,2634.09L4712.31,2618.25L4715.71,2604.68L4717.97,2587.71L4720.23,2573L4719.1,2556.03L4720.23,2541.32L4723.63,2526.61L4722.5,2508.51L4725.89,2494.93L4724.76,2476.83L4723.63,2460.99L4725.89,2431.58L4719.1,2419.13L4708.92,2407.82L4695.34,2399.9L4662.53,2398.77L4648.96,2401.03L4630.86,2398.77L4616.15,2401.03L4599.18,2398.77L4585.6,2399.9L4569.76,2398.77L4523.38,2398.77L4507.54,2406.69L4499.62,2416.87L4491.7,2429.32L4492.83,2460.99L4493.96,2496.07L4498.49,2509.64L4508.67,2518.69L4521.11,2525.48L4539.22,2525.48L4558.45,2531.14L4574.29,2543.58L4574.29,2589.97L4572.03,2606.94L4569.76,2622.78L4564.11,2638.62L4559.58,2653.33L4551.66,2668.03L4543.74,2678.22L4530.16,2687.27L4516.59,2695.19L4486.04,2695.19L4474.73,2688.4L4463.41,2679.35L4452.1,2668.03L4446.44,2653.33L4437.39,2639.75L4430.61,2610.33L4424.95,2593.36L4423.82,2577.53L4422.69,2565.08L4418.16,2548.11L4418.16,2534.53L4415.9,2516.43L4414.77,2502.86L4415.9,2487.02L4417.03,2470.05L4414.77,2438.37L4415.9,2422.53L4417.03,2405.56L4415.9,2389.72L4419.29,2371.62L4420.42,2353.51L4421.55,2337.68L4422.69,2322.97L4426.08,2303.74L4428.34,2287.9L4430.61,2273.19L4434,2256.22L4438.53,2241.51L4447.58,2226.8L4455.49,2214.36L4464.55,2205.31L4472.47,2196.26L4487.17,2191.73L4515.46,2191.73L4529.03,2200.78L4539.22,2214.36L4547.14,2229.07L4551.66,2242.64L4557.32,2257.35L4562.97,2290.16L4568.63,2302.6L4581.08,2311.66L4593.52,2316.18L4624.07,2319.58L4643.3,2320.71L4658.01,2319.58L4690.82,2316.18L4705.53,2309.39L4714.58,2299.21L4716.84,2285.63Z" style="fill:rgb(230,252,255);fill-rule:nonzero;"/>
            <path d="M4936.32,2045.79L4906.91,2044.65L4891.07,2042.39L4878.62,2044.65L4863.92,2043.52L4848.08,2044.65L4819.79,2044.65L4803.95,2051.44L4796.03,2062.76L4790.38,2076.33L4788.11,2105.75L4790.38,2119.32L4788.11,2137.43L4788.11,2186.07L4790.38,2199.65L4790.38,2281.11L4789.25,2295.82L4791.51,2313.92L4791.51,2328.62L4790.38,2343.33L4791.51,2361.43L4791.51,2376.14L4789.25,2394.24L4791.51,2408.95L4791.51,2423.66L4789.25,2439.5L4791.51,2456.47L4790.38,2474.57L4790.38,2503.99L4789.25,2522.09L4789.25,2537.93L4791.51,2554.9L4790.38,2570.74L4790.38,2586.58L4791.51,2602.41L4790.38,2617.12L4791.51,2635.22L4789.25,2649.93L4790.38,2666.9L4790.38,2697.45L4788.11,2731.39L4789.25,2744.97L4788.11,2760.8L4788.11,2808.32L4796.03,2821.9L4803.95,2830.95L4818.66,2836.61L4849.21,2838.87L4861.65,2837.74L4892.2,2840L4936.32,2836.61L4948.77,2829.82L4958.95,2821.9L4964.61,2806.06L4966.87,2777.78L4964.61,2746.1L4965.74,2727.99L4965.74,2698.58L4964.61,2681.61L4965.74,2665.77L4964.61,2651.06L4965.74,2632.96L4965.74,2618.25L4964.61,2602.41L4963.48,2584.31L4963.48,2569.61L4965.74,2553.77L4963.48,2535.66L4963.48,2488.15L4964.61,2472.31L4964.61,2458.73L4963.48,2439.5L4964.61,2424.79L4963.48,2407.82L4963.48,2393.11L4965.74,2375.01L4965.74,2343.33L4964.61,2327.49L4963.48,2313.92L4964.61,2295.82L4964.61,2279.98L4965.74,2264.14L4965.74,2249.43L4963.48,2231.33L4964.61,2214.36L4966.87,2199.65L4965.74,2184.94L4964.61,2169.1L4964.61,2153.26L4966.87,2121.59L4964.61,2104.62L4965.74,2075.2L4961.21,2060.49L4948.77,2052.57L4936.32,2045.79Z" style="fill:rgb(230,252,255);fill-rule:nonzero;"/>
            <path d="M5194.27,2835.47L5224.82,2836.61L5237.27,2838.87L5254.23,2836.61L5268.94,2836.61L5283.65,2838.87L5313.07,2837.74L5325.51,2829.82L5335.69,2820.77L5339.09,2806.06L5342.48,2776.64L5340.22,2760.8L5340.22,2744.97L5341.35,2730.26L5339.09,2698.58L5341.35,2682.74L5340.22,2666.9L5340.22,2636.36L5339.09,2620.52L5341.35,2604.68L5340.22,2587.71L5340.22,2571.87L5341.35,2556.03L5339.09,2541.32L5340.22,2525.48L5339.09,2508.51L5339.09,2492.67L5340.22,2477.97L5340.22,2397.64L5341.35,2382.93L5342.48,2367.09L5341.35,2351.25L5342.48,2335.41L5342.48,2318.44L5340.22,2304.87L5341.35,2287.9L5341.35,2273.19L5340.22,2256.22L5341.35,2242.64L5345.88,2208.7L5357.19,2196.26L5391.13,2193.99L5410.36,2195.12L5442.04,2193.99L5453.35,2191.73L5464.67,2182.68L5472.59,2169.1L5474.85,2136.29L5473.72,2120.45L5474.85,2106.88L5472.59,2076.33L5464.67,2060.49L5454.49,2052.57L5442.04,2045.79L5412.62,2043.52L5395.65,2044.65L5378.69,2042.39L5362.85,2044.65L5348.14,2044.65L5330.04,2042.39L5315.33,2042.39L5298.36,2043.52L5284.78,2044.65L5267.81,2042.39L5253.1,2044.65L5236.13,2042.39L5220.29,2042.39L5203.32,2044.65L5186.35,2044.65L5171.65,2042.39L5155.81,2044.65L5137.7,2043.52L5121.87,2043.52L5107.16,2042.39L5092.45,2043.52L5061.9,2045.79L5047.2,2050.31L5038.15,2061.62L5030.23,2075.2L5029.09,2104.62L5030.23,2122.72L5030.23,2136.29L5032.49,2167.97L5039.28,2182.68L5049.46,2190.6L5063.03,2193.99L5111.68,2193.99L5150.15,2196.26L5162.6,2209.83L5165.99,2242.64L5164.86,2259.61L5165.99,2273.19L5167.12,2287.9L5165.99,2306L5167.12,2319.58L5164.86,2335.41L5167.12,2353.51L5165.99,2367.09L5167.12,2384.06L5165.99,2401.03L5165.99,2414.61L5164.86,2430.45L5167.12,2445.16L5164.86,2462.13L5165.99,2476.83L5165.99,2493.8L5167.12,2510.77L5167.12,2557.16L5164.86,2574.13L5165.99,2589.97L5164.86,2604.68L5164.86,2618.25L5165.99,2634.09L5164.86,2652.19L5167.12,2665.77L5167.12,2682.74L5165.99,2697.45L5164.86,2715.55L5165.99,2730.26L5164.86,2744.97L5164.86,2776.64L5167.12,2807.19L5170.51,2820.77L5179.57,2830.95L5194.27,2835.47Z" style="fill:rgb(230,252,255);fill-rule:nonzero;"/>
            <path d="M5668.31,2046.92L5636.64,2043.52L5623.06,2043.52L5607.22,2042.39L5593.64,2044.65L5563.1,2046.92L5548.39,2052.57L5537.07,2062.76L5532.55,2075.2L5531.42,2103.49L5532.55,2121.59L5530.29,2135.16L5532.55,2152.13L5531.42,2167.97L5531.42,2183.81L5530.29,2199.65L5530.29,2217.75L5532.55,2233.59L5533.68,2249.43L5533.68,2264.14L5532.55,2279.98L5532.55,2298.08L5531.42,2311.66L5533.68,2343.33L5533.68,2361.43L5531.42,2378.41L5533.68,2394.24L5531.42,2408.95L5531.42,2424.79L5532.55,2442.89L5533.68,2456.47L5533.68,2474.57L5531.42,2488.15L5531.42,2506.25L5533.68,2520.96L5532.55,2539.06L5531.42,2553.77L5533.68,2569.61L5532.55,2587.71L5532.55,2602.41L5533.68,2617.12L5532.55,2634.09L5531.42,2649.93L5532.55,2668.03L5532.55,2681.61L5531.42,2698.58L5532.55,2715.55L5531.42,2732.52L5531.42,2763.07L5532.55,2776.64L5531.42,2806.06L5537.07,2820.77L5547.26,2832.08L5560.83,2837.74L5591.38,2838.87L5604.96,2840L5620.8,2840L5636.64,2837.74L5667.18,2837.74L5681.89,2832.08L5690.94,2819.64L5697.73,2808.32L5695.47,2777.78L5697.73,2761.94L5697.73,2746.1L5696.6,2732.52L5697.73,2714.42L5695.47,2685L5696.6,2668.03L5697.73,2653.33L5695.47,2638.62L5697.73,2621.65L5695.47,2605.81L5696.6,2589.97L5697.73,2576.39L5697.73,2558.29L5695.47,2542.45L5696.6,2528.88L5697.73,2499.46L5703.39,2485.88L5715.83,2480.23L5741.85,2477.97L5756.56,2477.97L5788.24,2481.36L5800.68,2493.8L5805.21,2526.61L5805.21,2544.72L5804.08,2558.29L5804.08,2574.13L5805.21,2591.1L5802.94,2606.94L5804.08,2623.91L5804.08,2655.59L5802.94,2669.16L5805.21,2700.84L5802.94,2716.68L5805.21,2731.39L5805.21,2748.36L5804.08,2764.2L5805.21,2778.91L5804.08,2808.32L5810.86,2821.9L5818.78,2829.82L5834.62,2837.74L5861.78,2838.87L5878.75,2837.74L5895.72,2840L5909.29,2840L5940.97,2836.61L5952.28,2829.82L5962.47,2821.9L5969.25,2806.06L5970.39,2776.64L5969.25,2761.94L5970.39,2746.1L5969.25,2729.13L5970.39,2713.29L5969.25,2698.58L5968.12,2681.61L5969.25,2664.64L5966.99,2649.93L5968.12,2632.96L5968.12,2618.25L5966.99,2601.28L5966.99,2586.58L5968.12,2570.74L5968.12,2536.8L5966.99,2520.96L5966.99,2488.15L5968.12,2474.57L5966.99,2456.47L5969.25,2440.63L5968.12,2424.79L5968.12,2407.82L5966.99,2391.98L5969.25,2378.41L5969.25,2359.17L5968.12,2345.6L5966.99,2328.62L5969.25,2312.79L5969.25,2296.95L5966.99,2281.11L5966.99,2248.3L5968.12,2231.33L5968.12,2198.52L5970.39,2182.68L5969.25,2169.1L5969.25,2120.45L5968.12,2104.62L5969.25,2075.2L5962.47,2061.62L5954.55,2050.31L5939.84,2045.79L5911.56,2043.52L5893.45,2044.65L5878.75,2042.39L5862.91,2043.52L5833.49,2044.65L5818.78,2051.44L5810.86,2060.49L5805.21,2076.33L5802.94,2105.75L5804.08,2120.45L5805.21,2136.29L5804.08,2152.13L5802.94,2170.24L5802.94,2187.21L5804.08,2203.05L5804.08,2300.34L5802.94,2317.31L5799.55,2351.25L5789.37,2361.43L5758.82,2367.09L5745.24,2364.83L5711.3,2363.7L5699.99,2351.25L5696.6,2313.92L5695.47,2298.08L5697.73,2283.37L5696.6,2266.4L5695.47,2248.3L5697.73,2232.46L5696.6,2217.75L5696.6,2201.91L5695.47,2183.81L5697.73,2153.26L5696.6,2135.16L5696.6,2121.59L5697.73,2103.49L5695.47,2076.33L5692.07,2060.49L5679.63,2052.57L5668.31,2046.92Z" style="fill:rgb(230,252,255);fill-rule:nonzero;"/>
            <path d="M6486.29,2061.62L6488.55,2092.17L6489.68,2109.14L6487.42,2124.98L6488.55,2139.69L6487.42,2157.79L6488.55,2172.5L6488.55,2188.34L6489.68,2205.31L6488.55,2218.88L6487.42,2235.85L6487.42,2249.43L6489.68,2267.53L6488.55,2282.24L6488.55,2330.89L6487.42,2345.6L6489.68,2361.43L6489.68,2378.41L6487.42,2393.11L6489.68,2407.82L6489.68,2424.79L6487.42,2438.37L6488.55,2455.34L6488.55,2470.05L6489.68,2487.02L6489.68,2519.83L6486.29,2550.37L6488.55,2565.08L6486.29,2583.18L6486.29,2597.89L6482.89,2614.86L6481.76,2632.96L6479.5,2647.67L6477.24,2664.64L6473.84,2678.22L6467.05,2709.89L6461.4,2726.86L6458,2742.7L6450.08,2754.02L6443.29,2768.72L6437.64,2783.43L6416.14,2804.93L6405.96,2817.37L6379.94,2833.21L6368.62,2840L6352.78,2844.53L6339.21,2849.05L6322.24,2852.45L6307.53,2854.71L6292.82,2855.84L6274.72,2856.97L6243.04,2859.23L6228.34,2856.97L6211.36,2855.84L6197.79,2852.45L6181.95,2847.92L6166.11,2842.26L6152.53,2837.74L6138.96,2828.69L6125.38,2820.77L6103.89,2799.27L6092.57,2784.56L6083.52,2773.25L6076.73,2756.28L6068.81,2742.7L6065.42,2726.86L6060.89,2711.03L6057.5,2694.05L6051.84,2678.22L6048.45,2663.51L6048.45,2647.67L6045.06,2630.7L6043.92,2614.86L6041.66,2600.15L6040.53,2580.92L6042.79,2565.08L6042.79,2549.24L6041.66,2519.83L6042.79,2503.99L6040.53,2488.15L6042.79,2472.31L6041.66,2454.21L6041.66,2438.37L6042.79,2422.53L6041.66,2408.95L6041.66,2391.98L6040.53,2378.41L6040.53,2362.57L6042.79,2345.6L6040.53,2328.62L6041.66,2313.92L6042.79,2298.08L6040.53,2282.24L6042.79,2267.53L6042.79,2251.69L6040.53,2233.59L6040.53,2218.88L6042.79,2203.05L6041.66,2188.34L6042.79,2173.63L6040.53,2157.79L6042.79,2140.82L6041.66,2123.85L6041.66,2094.43L6043.92,2059.36L6056.37,2046.92L6089.18,2042.39L6103.89,2044.65L6120.86,2042.39L6133.3,2043.52L6149.14,2042.39L6183.08,2046.92L6192.13,2059.36L6196.66,2094.43L6198.92,2110.27L6198.92,2140.82L6197.79,2155.53L6198.92,2172.5L6197.79,2186.07L6196.66,2203.05L6198.92,2217.75L6198.92,2249.43L6196.66,2265.27L6198.92,2279.98L6197.79,2294.68L6198.92,2312.79L6197.79,2327.49L6197.79,2359.17L6196.66,2375.01L6198.92,2387.46L6196.66,2403.3L6196.66,2420.27L6197.79,2436.11L6196.66,2467.78L6196.66,2483.62L6198.92,2502.86L6198.92,2520.96L6197.79,2536.8L6200.05,2552.64L6201.18,2569.61L6201.18,2588.84L6203.45,2604.68L6207.97,2621.65L6210.23,2638.62L6212.5,2651.06L6219.28,2666.9L6224.94,2680.48L6233.99,2689.53L6244.18,2695.19L6255.49,2698.58L6281.51,2697.45L6297.35,2689.53L6306.4,2678.22L6310.93,2661.24L6321.11,2630.7L6322.24,2612.6L6325.63,2596.76L6326.76,2580.92L6329.03,2563.95L6329.03,2550.37L6327.9,2533.4L6330.16,2516.43L6331.29,2501.72L6330.16,2482.49L6331.29,2467.78L6332.42,2437.24L6331.29,2419.13L6331.29,2405.56L6332.42,2387.46L6330.16,2373.88L6330.16,2359.17L6331.29,2341.07L6331.29,2327.49L6332.42,2312.79L6330.16,2295.82L6331.29,2279.98L6332.42,2263.01L6330.16,2249.43L6332.42,2233.59L6331.29,2218.88L6331.29,2170.24L6330.16,2155.53L6332.42,2139.69L6330.16,2123.85L6332.42,2108.01L6331.29,2093.3L6334.68,2060.49L6346,2049.18L6393.51,2042.39L6408.22,2042.39L6426.32,2043.52L6439.9,2043.52L6472.71,2049.18L6486.29,2061.62Z" style="fill:rgb(230,252,255);fill-rule:nonzero;"/>
            <path d="M6586.98,2834.34L6618.65,2836.61L6632.23,2835.47L6646.94,2836.61L6679.75,2834.34L6693.32,2835.47L6722.74,2836.61L6770.26,2836.61L6787.23,2834.34L6800.8,2832.08L6817.77,2829.82L6832.48,2827.55L6847.19,2826.42L6865.29,2820.77L6880,2817.37L6893.57,2813.98L6921.86,2802.66L6936.57,2793.61L6952.41,2786.83L6962.59,2777.78L6973.9,2767.59L6987.48,2756.28L6996.53,2743.83L7006.71,2732.52L7012.37,2721.21L7021.42,2705.37L7027.08,2689.53L7029.34,2674.82L7033.86,2661.24L7034.99,2645.41L7037.26,2629.57L7037.26,2596.76L7034.99,2582.05L7032.73,2565.08L7031.6,2550.37L7027.08,2534.53L7021.42,2520.96L7016.89,2506.25L7010.11,2493.8L7003.32,2480.23L6994.27,2468.91L6963.72,2433.84L6959.19,2418L6976.16,2391.98L6986.35,2378.41L6993.14,2363.7L6997.66,2347.86L7006.71,2318.44L7010.11,2301.47L7012.37,2287.9L7011.24,2253.96L7010.11,2238.12L7008.97,2225.67L7006.71,2209.83L7001.05,2191.73L6998.79,2178.16L6990.87,2165.71L6982.95,2151L6972.77,2139.69L6964.85,2124.98L6953.54,2114.8L6938.83,2106.88L6926.39,2096.7L6913.94,2088.78L6898.1,2083.12L6884.52,2075.2L6867.55,2071.81L6852.85,2066.15L6838.14,2065.02L6821.17,2059.36L6805.33,2055.97L6789.49,2054.84L6774.78,2052.57L6758.94,2052.57L6741.97,2051.44L6726.13,2051.44L6696.72,2049.18L6678.62,2050.31L6649.2,2049.18L6633.36,2045.79L6617.52,2046.92L6586.98,2048.05L6575.66,2051.44L6566.61,2062.76L6559.82,2076.33L6559.82,2138.56L6558.69,2155.53L6558.69,2171.37L6559.82,2186.07L6559.82,2216.62L6560.95,2233.59L6558.69,2250.56L6559.82,2267.53L6562.09,2281.11L6562.09,2298.08L6560.95,2312.79L6559.82,2330.89L6562.09,2344.47L6560.95,2360.3L6560.95,2391.98L6559.82,2407.82L6559.82,2456.47L6562.09,2474.57L6559.82,2488.15L6560.95,2505.12L6559.82,2522.09L6559.82,2536.8L6560.95,2552.64L6560.95,2568.47L6559.82,2584.31L6559.82,2600.15L6560.95,2617.12L6560.95,2648.8L6558.69,2664.64L6558.69,2682.74L6560.95,2697.45L6560.95,2729.13L6558.69,2746.1L6557.56,2760.8L6557.56,2775.51L6558.69,2807.19L6565.48,2820.77L6575.66,2828.69L6586.98,2834.34ZM6738.58,2491.54L6772.52,2489.28L6784.97,2493.8L6799.67,2497.2L6829.09,2511.91L6840.4,2520.96L6849.45,2531.14L6857.37,2545.85L6863.03,2558.29L6866.42,2575.26L6867.55,2606.94L6866.42,2622.78L6860.77,2639.75L6855.11,2654.46L6843.8,2669.16L6834.74,2679.35L6817.77,2687.27L6805.33,2692.92L6787.23,2696.32L6739.71,2694.05L6726.13,2682.74L6720.48,2647.67L6720.48,2634.09L6721.61,2615.99L6722.74,2600.15L6721.61,2585.44L6722.74,2570.74L6720.48,2552.64L6721.61,2537.93L6725,2506.25L6738.58,2491.54ZM6727.27,2359.17L6722.74,2328.62L6723.87,2311.66L6722.74,2298.08L6723.87,2282.24L6721.61,2267.53L6723.87,2252.82L6722.74,2239.25L6723.87,2221.15L6730.66,2193.99L6741.97,2190.6L6772.52,2189.47L6789.49,2191.73L6805.33,2196.26L6817.77,2203.05L6831.35,2210.96L6840.4,2226.8L6844.93,2240.38L6847.19,2255.09L6847.19,2291.29L6844.93,2306L6842.66,2324.1L6827.96,2353.51L6815.51,2363.7L6804.2,2370.49L6786.1,2376.14L6771.39,2377.27L6738.58,2372.75L6727.27,2359.17Z" style="fill:rgb(230,252,255);fill-rule:nonzero;"/>
            <path d="M7135.69,2845.66L7165.1,2846.79L7180.94,2843.39L7196.78,2836.61L7219.41,2818.5L7226.19,2803.8L7234.11,2789.09L7236.38,2775.51L7238.64,2742.7L7232.98,2726.86L7227.33,2714.42L7219.41,2699.71L7209.22,2688.4L7182.07,2674.82L7166.23,2671.43L7135.69,2670.3L7118.72,2675.95L7105.14,2679.35L7092.69,2689.53L7081.38,2699.71L7071.2,2714.42L7066.67,2727.99L7063.28,2742.7L7062.15,2775.51L7066.67,2789.09L7071.2,2803.8L7081.38,2817.37L7090.43,2828.69L7104.01,2837.74L7119.85,2842.26L7135.69,2845.66Z" style="fill:rgb(230,252,255);fill-rule:nonzero;"/>
            <path d="M7492.06,2855.84L7524.87,2855.84L7540.71,2853.58L7554.29,2852.45L7569,2845.66L7583.7,2841.13L7599.54,2834.34L7626.7,2818.5L7638.01,2809.45L7650.45,2799.27L7659.51,2787.96L7673.08,2775.51L7682.13,2763.07L7691.18,2749.49L7696.84,2734.78L7705.89,2722.34L7711.55,2705.37L7717.2,2692.92L7720.6,2675.95L7725.12,2663.51L7729.65,2647.67L7734.18,2629.57L7737.57,2600.15L7738.7,2583.18L7738.7,2568.47L7737.57,2550.37L7731.91,2537.93L7721.73,2523.22L7711.55,2515.3L7681,2511.91L7664.03,2514.17L7648.19,2511.91L7615.38,2514.17L7604.07,2519.83L7592.76,2527.74L7587.1,2542.45L7580.31,2570.74L7576.92,2585.44L7575.78,2602.41L7569,2615.99L7566.73,2632.96L7561.08,2646.54L7554.29,2661.24L7545.24,2675.95L7535.06,2687.27L7521.48,2695.19L7492.06,2695.19L7480.75,2683.87L7460.39,2658.98L7454.73,2643.14L7451.34,2628.44L7446.81,2614.86L7443.42,2596.76L7441.15,2583.18L7438.89,2566.21L7436.63,2551.5L7434.36,2534.53L7434.36,2518.69L7432.1,2489.28L7433.23,2471.18L7433.23,2388.59L7435.5,2371.62L7435.5,2355.78L7440.02,2338.81L7438.89,2321.84L7443.42,2306L7445.68,2291.29L7451.34,2274.32L7454.73,2258.48L7460.39,2243.77L7467.17,2230.2L7473.96,2214.36L7480.75,2204.18L7492.06,2195.12L7504.51,2189.47L7532.79,2191.73L7544.11,2201.91L7553.16,2215.49L7562.21,2227.93L7564.47,2244.91L7571.26,2257.35L7574.65,2275.45L7575.78,2290.16L7580.31,2304.87L7583.7,2319.58L7584.84,2337.68L7588.23,2365.96L7593.89,2379.54L7601.81,2390.85L7615.38,2394.24L7647.06,2396.51L7682.13,2396.51L7714.94,2395.38L7727.39,2389.72L7736.44,2377.27L7743.23,2364.83L7743.23,2330.89L7740.96,2316.18L7738.7,2299.21L7735.31,2284.5L7734.18,2268.66L7730.78,2251.69L7727.39,2235.85L7725.12,2217.75L7718.34,2201.91L7712.68,2189.47L7709.28,2171.37L7703.63,2157.79L7695.71,2143.08L7687.79,2130.64L7678.74,2114.8L7670.82,2102.35L7660.64,2092.17L7650.45,2078.6L7640.27,2069.54L7627.83,2059.36L7614.25,2052.57L7602.94,2042.39L7588.23,2037.87L7572.39,2033.34L7558.82,2028.82L7544.11,2024.29L7528.27,2025.42L7497.72,2023.16L7484.15,2026.55L7467.17,2027.68L7453.6,2032.21L7438.89,2037.87L7425.31,2043.52L7410.61,2050.31L7395.9,2060.49L7383.45,2069.54L7373.27,2079.73L7361.96,2093.3L7351.78,2103.49L7343.86,2115.93L7333.67,2129.51L7329.15,2146.48L7320.1,2158.92L7313.31,2173.63L7307.65,2189.47L7305.39,2203.05L7300.86,2220.01L7295.21,2234.72L7292.94,2251.69L7287.29,2266.4L7285.03,2281.11L7285.03,2296.95L7280.5,2315.05L7280.5,2329.76L7277.11,2346.73L7274.84,2362.57L7277.11,2376.14L7275.98,2391.98L7272.58,2410.08L7274.84,2425.92L7273.71,2440.63L7273.71,2490.41L7272.58,2506.25L7273.71,2523.22L7277.11,2539.06L7275.98,2554.9L7278.24,2573L7279.37,2589.97L7281.63,2605.81L7286.16,2622.78L7289.55,2637.49L7294.08,2656.72L7297.47,2670.3L7299.73,2688.4L7305.39,2700.84L7313.31,2716.68L7320.1,2733.65L7326.89,2747.23L7334.81,2759.67L7342.73,2773.25L7350.64,2784.56L7360.83,2795.88L7373.27,2807.19L7382.32,2816.24L7394.77,2825.29L7407.21,2833.21L7421.92,2841.13L7434.36,2844.53L7450.2,2849.05L7464.91,2852.45L7478.49,2854.71L7492.06,2855.84Z" style="fill:rgb(230,252,255);fill-rule:nonzero;"/>
            <path d="M8012.49,2856.97L8043.04,2858.1L8061.14,2855.84L8075.85,2854.71L8089.42,2849.05L8104.13,2846.79L8117.71,2840L8134.68,2832.08L8147.12,2821.9L8170.88,2801.53L8181.06,2792.48L8191.24,2780.04L8199.16,2766.46L8207.08,2751.75L8216.14,2735.91L8221.79,2721.21L8227.45,2708.76L8233.1,2691.79L8238.76,2678.22L8242.16,2661.24L8244.42,2645.41L8250.08,2629.57L8254.6,2597.89L8255.73,2582.05L8259.13,2568.47L8258,2551.5L8260.26,2536.8L8260.26,2522.09L8261.39,2503.99L8263.65,2489.28L8263.65,2473.44L8261.39,2439.5L8262.52,2423.66L8261.39,2408.95L8261.39,2393.11L8260.26,2375.01L8259.13,2360.3L8258,2344.47L8255.73,2327.49L8253.47,2311.66L8251.21,2294.68L8250.08,2279.98L8245.55,2261.88L8242.16,2247.17L8241.02,2231.33L8234.24,2214.36L8231.97,2200.78L8226.32,2183.81L8218.4,2169.1L8215,2154.4L8205.95,2141.95L8199.16,2128.38L8192.38,2115.93L8181.06,2103.49L8172.01,2091.04L8162.96,2077.46L8151.65,2069.54L8141.47,2058.23L8126.76,2050.31L8115.44,2042.39L8100.74,2037.87L8089.42,2032.21L8072.45,2028.82L8057.74,2025.42L8014.75,2024.29L7998.91,2027.68L7980.81,2029.95L7967.24,2035.6L7953.66,2039L7938.95,2049.18L7925.38,2057.1L7900.49,2077.46L7891.43,2087.65L7881.25,2100.09L7871.07,2114.8L7862.02,2128.38L7857.49,2143.08L7848.44,2158.92L7843.92,2171.37L7838.26,2187.21L7831.47,2201.91L7826.95,2217.75L7822.42,2234.72L7821.29,2248.3L7816.77,2266.4L7812.24,2279.98L7812.24,2296.95L7807.71,2312.79L7805.45,2327.49L7804.32,2344.47L7803.19,2360.3L7802.06,2378.41L7800.93,2393.11L7800.93,2488.15L7799.79,2506.25L7803.19,2522.09L7804.32,2536.8L7805.45,2553.77L7805.45,2571.87L7806.58,2586.58L7808.85,2603.55L7814.5,2619.39L7814.5,2636.36L7820.16,2652.19L7823.55,2666.9L7828.08,2680.48L7845.05,2727.99L7850.7,2741.57L7859.76,2756.28L7865.41,2767.59L7875.6,2780.04L7884.65,2793.61L7906.14,2815.11L7916.32,2823.03L7927.64,2832.08L7954.79,2845.66L7984.21,2852.45L7998.91,2858.1L8012.49,2856.97ZM7960.45,2466.65L7960.45,2433.84L7959.32,2419.13L7961.58,2404.43L7962.71,2385.19L7960.45,2370.49L7961.58,2353.51L7964.97,2337.68L7964.97,2321.84L7967.24,2307.13L7971.76,2291.29L7972.89,2275.45L7978.55,2260.74L7983.07,2243.77L7987.6,2229.07L7994.39,2216.62L8000.05,2204.18L8012.49,2192.86L8023.8,2186.07L8050.96,2187.21L8063.4,2195.12L8072.45,2207.57L8086.03,2236.99L8089.42,2249.43L8096.21,2264.14L8096.21,2282.24L8100.74,2296.95L8100.74,2310.52L8104.13,2326.36L8105.26,2343.33L8105.26,2358.04L8106.39,2372.75L8106.39,2390.85L8107.52,2404.43L8108.65,2421.4L8107.52,2436.11L8108.65,2467.78L8107.52,2484.75L8107.52,2501.72L8105.26,2516.43L8106.39,2533.4L8103,2550.37L8103,2583.18L8099.6,2599.02L8096.21,2613.73L8093.95,2628.44L8092.82,2645.41L8086.03,2660.11L8083.77,2675.95L8076.98,2690.66L8070.19,2700.84L8060.01,2711.03L8049.82,2716.68L8020.41,2717.81L8006.83,2708.76L7996.65,2698.58L7987.6,2683.87L7978.55,2654.46L7974.02,2640.88L7969.5,2623.91L7967.24,2606.94L7964.97,2594.49L7966.1,2578.66L7961.58,2561.69L7962.71,2546.98L7960.45,2530.01L7959.32,2515.3L7959.32,2482.49L7960.45,2466.65Z" style="fill:rgb(230,252,255);fill-rule:nonzero;"/>
            <path d="M8479.74,2045.79L8445.8,2044.65L8414.12,2042.39L8400.55,2043.52L8365.47,2046.92L8350.77,2051.44L8336.06,2060.49L8327.01,2071.81L8325.88,2104.62L8324.75,2119.32L8325.88,2137.43L8327.01,2154.4L8325.88,2167.97L8325.88,2217.75L8327.01,2233.59L8327.01,2248.3L8328.14,2264.14L8325.88,2282.24L8328.14,2295.82L8325.88,2312.79L8328.14,2327.49L8325.88,2343.33L8327.01,2359.17L8327.01,2376.14L8328.14,2393.11L8328.14,2424.79L8325.88,2440.63L8327.01,2456.47L8327.01,2474.57L8328.14,2489.28L8325.88,2520.96L8327.01,2537.93L8328.14,2552.64L8328.14,2586.58L8327.01,2602.41L8325.88,2617.12L8325.88,2632.96L8328.14,2651.06L8325.88,2665.77L8327.01,2680.48L8327.01,2697.45L8325.88,2713.29L8325.88,2747.23L8327.01,2761.94L8324.75,2776.64L8327.01,2806.06L8331.53,2819.64L8341.72,2832.08L8354.16,2837.74L8384.71,2840L8399.42,2837.74L8415.25,2837.74L8431.09,2838.87L8461.64,2835.47L8474.09,2830.95L8485.4,2821.9L8491.06,2808.32L8491.06,2760.8L8489.92,2744.97L8489.92,2729.13L8491.06,2714.42L8489.92,2695.19L8491.06,2680.48L8488.79,2664.64L8489.92,2647.67L8488.79,2630.7L8491.06,2601.28L8489.92,2582.05L8491.06,2566.21L8491.06,2551.5L8488.79,2517.56L8488.79,2503.99L8489.92,2485.88L8489.92,2453.08L8493.32,2420.27L8503.5,2410.08L8521.6,2413.48L8537.44,2444.02L8543.1,2457.6L8547.62,2472.31L8554.41,2485.88L8560.07,2500.59L8564.59,2514.17L8572.51,2530.01L8577.04,2545.85L8581.56,2559.42L8600.8,2585.44L8630.21,2582.05L8638.13,2563.95L8648.31,2531.14L8653.97,2516.43L8658.5,2503.99L8665.28,2485.88L8668.68,2471.18L8675.47,2457.6L8687.91,2428.18L8704.88,2421.4L8715.06,2433.84L8719.59,2465.52L8719.59,2494.93L8720.72,2511.91L8719.59,2528.88L8720.72,2544.72L8719.59,2560.55L8720.72,2574.13L8718.46,2591.1L8718.46,2622.78L8720.72,2637.49L8719.59,2655.59L8718.46,2671.43L8717.33,2685L8718.46,2699.71L8719.59,2717.81L8717.33,2732.52L8719.59,2749.49L8719.59,2777.78L8718.46,2809.45L8722.98,2821.9L8733.17,2832.08L8749.01,2838.87L8854.22,2838.87L8866.67,2833.21L8876.85,2821.9L8882.51,2807.19L8883.64,2778.91L8883.64,2759.67L8884.77,2746.1L8883.64,2730.26L8883.64,2713.29L8884.77,2696.32L8882.51,2682.74L8882.51,2664.64L8883.64,2651.06L8882.51,2632.96L8882.51,2602.41L8881.37,2584.31L8881.37,2570.74L8883.64,2554.9L8882.51,2536.8L8881.37,2520.96L8882.51,2503.99L8883.64,2488.15L8881.37,2473.44L8882.51,2457.6L8882.51,2439.5L8883.64,2424.79L8883.64,2408.95L8881.37,2393.11L8881.37,2376.14L8883.64,2359.17L8881.37,2345.6L8883.64,2329.76L8882.51,2311.66L8883.64,2295.82L8882.51,2281.11L8881.37,2265.27L8881.37,2247.17L8883.64,2231.33L8883.64,2214.36L8884.77,2200.78L8883.64,2182.68L8882.51,2167.97L8882.51,2153.26L8884.77,2136.29L8884.77,2119.32L8883.64,2103.49L8881.37,2075.2L8877.98,2060.49L8867.8,2052.57L8853.09,2046.92L8822.54,2043.52L8793.13,2043.52L8777.29,2044.65L8760.32,2043.52L8729.77,2048.05L8713.93,2053.7L8701.49,2065.02L8687.91,2094.43L8681.12,2111.4L8677.73,2124.98L8669.81,2140.82L8664.15,2158.92L8659.63,2171.37L8652.84,2188.34L8644.92,2204.18L8641.53,2217.75L8634.74,2234.72L8618.9,2263.01L8607.59,2270.93L8590.61,2264.14L8579.3,2235.85L8573.64,2221.15L8560.07,2192.86L8554.41,2178.16L8549.89,2163.45L8545.36,2152.13L8539.7,2135.16L8531.78,2123.85L8526.13,2108.01L8520.47,2095.57L8506.89,2065.02L8496.71,2053.7L8479.74,2045.79Z" style="fill:rgb(230,252,255);fill-rule:nonzero;"/>
            <path d="M8999.03,2955.4L9026.19,2957.66L9053.34,2956.53L9066.92,2950.87L9080.49,2942.95L9089.54,2932.77L9099.73,2899.96L9100.86,2885.25L9103.12,2869.41L9107.65,2853.58L9111.04,2837.74L9114.43,2824.16L9117.83,2807.19L9118.96,2792.48L9121.22,2777.78L9125.75,2759.67L9128.01,2747.23L9132.54,2731.39L9135.93,2713.29L9137.06,2698.58L9141.59,2683.87L9143.85,2669.16L9148.38,2652.19L9149.51,2637.49L9152.9,2620.52L9158.56,2605.81L9158.56,2588.84L9161.95,2574.13L9166.48,2558.29L9171,2543.58L9174.4,2526.61L9176.66,2510.77L9180.05,2497.2L9183.45,2479.1L9184.58,2463.26L9193.63,2431.58L9193.63,2416.87L9197.02,2403.3L9201.55,2386.33L9206.07,2370.49L9209.47,2354.65L9211.73,2337.68L9215.12,2324.1L9217.39,2307.13L9219.65,2292.42L9223.05,2276.58L9228.7,2261.88L9232.09,2244.91L9234.36,2230.2L9236.62,2214.36L9238.88,2199.65L9244.54,2182.68L9246.8,2165.71L9250.2,2152.13L9252.46,2136.29L9255.85,2121.59L9261.51,2105.75L9264.91,2091.04L9269.43,2060.49L9264.91,2046.92L9254.72,2033.34L9243.41,2028.82L9210.6,2025.42L9178.92,2028.82L9164.21,2037.87L9151.77,2049.18L9143.85,2083.12L9139.32,2096.7L9139.32,2111.4L9134.8,2128.38L9131.4,2144.21L9129.14,2160.05L9124.62,2173.63L9121.22,2189.47L9118.96,2206.44L9115.57,2222.28L9113.3,2238.12L9111.04,2251.69L9107.65,2267.53L9103.12,2283.37L9101.99,2298.08L9097.46,2316.18L9095.2,2329.76L9091.81,2345.6L9089.54,2363.7L9085.02,2378.41L9081.62,2394.24L9080.49,2407.82L9074.84,2425.92L9073.7,2440.63L9070.31,2455.34L9065.79,2471.18L9063.52,2487.02L9060.13,2503.99L9056.74,2518.69L9054.47,2535.66L9049.95,2549.24L9047.68,2566.21L9044.29,2582.05L9040.9,2596.76L9036.37,2611.47L9035.24,2627.3L9029.58,2642.01L9028.45,2660.11L9023.93,2674.82L9017.14,2706.5L9010.35,2735.91L9006.95,2752.89L9004.69,2768.72L9002.43,2785.7L8997.9,2800.4L8995.64,2813.98L8988.85,2845.66L8986.59,2861.5L8982.07,2876.2L8978.67,2892.04L8974.15,2921.46L8977.54,2937.3L8985.46,2948.61L8999.03,2955.4Z" style="fill:rgb(230,252,255);fill-rule:nonzero;"/>
            <path d="M9332.79,2230.2L9332.79,2263.01L9333.92,2276.58L9337.31,2293.55L9341.84,2307.13L9346.36,2322.97L9349.76,2337.68L9363.33,2367.09L9374.65,2379.54L9381.43,2394.24L9390.49,2405.56L9401.8,2419.13L9411.98,2431.58L9424.43,2440.63L9436.87,2451.94L9473.08,2482.49L9486.65,2490.41L9501.36,2499.46L9513.8,2508.51L9526.25,2516.43L9540.96,2525.48L9553.4,2536.8L9564.72,2545.85L9579.42,2556.03L9588.47,2568.47L9599.79,2579.79L9608.84,2589.97L9615.63,2605.81L9621.28,2618.25L9623.55,2648.8L9619.02,2663.51L9612.23,2679.35L9605.44,2689.53L9595.26,2701.97L9581.69,2706.5L9569.24,2711.03L9537.56,2711.03L9510.41,2697.45L9502.49,2686.14L9494.57,2671.43L9490.05,2658.98L9485.52,2642.01L9482.13,2627.3L9479.86,2600.15L9475.34,2586.58L9464.02,2574.13L9450.45,2567.34L9419.9,2565.08L9385.96,2565.08L9353.15,2568.47L9339.58,2575.26L9329.39,2583.18L9324.87,2599.02L9323.74,2629.57L9324.87,2643.14L9326,2658.98L9330.52,2675.95L9335.05,2690.66L9337.31,2706.5L9344.1,2721.21L9349.76,2737.05L9355.41,2748.36L9365.6,2763.07L9375.78,2776.64L9384.83,2787.96L9397.27,2799.27L9409.72,2808.32L9421.03,2817.37L9436.87,2825.29L9451.58,2832.08L9466.29,2840L9496.83,2847.92L9510.41,2849.05L9528.51,2852.45L9542.09,2853.58L9576.03,2851.31L9590.74,2850.18L9622.42,2845.66L9639.39,2842.26L9654.09,2835.47L9667.67,2829.82L9681.25,2823.03L9694.82,2813.98L9709.53,2803.8L9719.71,2795.88L9732.16,2784.56L9740.08,2772.12L9749.13,2759.67L9763.83,2730.26L9768.36,2714.42L9775.15,2699.71L9777.41,2682.74L9779.67,2669.16L9777.41,2636.36L9778.54,2618.25L9777.41,2604.68L9772.89,2586.58L9770.62,2570.74L9764.97,2556.03L9762.7,2542.45L9755.92,2527.74L9746.86,2514.17L9738.94,2499.46L9733.29,2485.88L9723.11,2474.57L9712.92,2460.99L9701.61,2450.81L9691.43,2439.5L9678.98,2430.45L9667.67,2419.13L9652.96,2411.22L9640.52,2402.16L9630.33,2393.11L9616.76,2382.93L9604.31,2375.01L9593,2367.09L9565.85,2346.73L9555.66,2335.41L9542.09,2326.36L9529.64,2315.05L9518.33,2303.74L9502.49,2278.85L9495.7,2264.14L9491.18,2251.69L9491.18,2234.72L9490.05,2203.05L9496.83,2188.34L9507.02,2177.02L9520.59,2167.97L9551.14,2164.58L9563.58,2170.24L9578.29,2177.02L9586.21,2190.6L9589.6,2204.18L9594.13,2216.62L9599.79,2246.04L9603.18,2259.61L9611.1,2272.06L9625.81,2276.58L9658.62,2279.98L9674.46,2278.85L9723.11,2278.85L9736.68,2272.06L9744.6,2260.74L9750.26,2247.17L9750.26,2200.78L9745.73,2184.94L9742.34,2170.24L9740.08,2155.53L9735.55,2140.82L9727.63,2126.11L9721.97,2113.67L9714.06,2100.09L9705,2086.51L9693.69,2074.07L9684.64,2063.89L9669.93,2057.1L9656.35,2048.05L9645.04,2041.26L9628.07,2035.6L9615.63,2029.95L9600.92,2028.82L9582.82,2026.55L9566.98,2023.16L9538.69,2025.42L9521.72,2026.55L9504.75,2025.42L9488.91,2029.95L9474.21,2032.21L9459.5,2036.74L9447.05,2041.26L9431.22,2048.05L9419.9,2057.1L9404.06,2063.89L9395.01,2074.07L9383.7,2084.25L9373.51,2098.96L9365.6,2109.14L9357.68,2124.98L9349.76,2138.56L9345.23,2153.26L9341.84,2166.84L9337.31,2183.81L9335.05,2197.39L9336.18,2215.49L9332.79,2230.2Z" style="fill:rgb(230,252,255);fill-rule:nonzero;"/>
            <path d="M10043.3,2855.84L10076.1,2855.84L10091.9,2853.58L10105.5,2852.45L10120.2,2845.66L10134.9,2841.13L10150.8,2834.34L10177.9,2818.5L10189.2,2809.45L10201.7,2799.27L10210.7,2787.96L10224.3,2775.51L10233.3,2763.07L10242.4,2749.49L10248.1,2734.78L10257.1,2722.34L10262.8,2705.37L10268.4,2692.92L10271.8,2675.95L10276.3,2663.51L10280.9,2647.67L10285.4,2629.57L10288.8,2600.15L10289.9,2583.18L10289.9,2568.47L10288.8,2550.37L10283.1,2537.93L10272.9,2523.22L10262.8,2515.3L10232.2,2511.91L10215.2,2514.17L10199.4,2511.91L10166.6,2514.17L10155.3,2519.83L10144,2527.74L10138.3,2542.45L10131.5,2570.74L10128.1,2585.44L10127,2602.41L10120.2,2615.99L10118,2632.96L10112.3,2646.54L10105.5,2661.24L10096.5,2675.95L10086.3,2687.27L10072.7,2695.19L10043.3,2695.19L10032,2683.87L10011.6,2658.98L10005.9,2643.14L10002.6,2628.44L9998.03,2614.86L9994.63,2596.76L9992.37,2583.18L9990.11,2566.21L9987.84,2551.5L9985.58,2534.53L9985.58,2518.69L9983.32,2489.28L9984.45,2471.18L9984.45,2388.59L9986.71,2371.62L9986.71,2355.78L9991.24,2338.81L9990.11,2321.84L9994.63,2306L9996.9,2291.29L10002.6,2274.32L10005.9,2258.48L10011.6,2243.77L10018.4,2230.2L10025.2,2214.36L10032,2204.18L10043.3,2195.12L10055.7,2189.47L10084,2191.73L10095.3,2201.91L10104.4,2215.49L10113.4,2227.93L10115.7,2244.91L10122.5,2257.35L10125.9,2275.45L10127,2290.16L10131.5,2304.87L10134.9,2319.58L10136.1,2337.68L10139.4,2365.96L10145.1,2379.54L10153,2390.85L10166.6,2394.24L10198.3,2396.51L10233.3,2396.51L10266.2,2395.38L10278.6,2389.72L10287.7,2377.27L10294.4,2364.83L10294.4,2330.89L10292.2,2316.18L10289.9,2299.21L10286.5,2284.5L10285.4,2268.66L10282,2251.69L10278.6,2235.85L10276.3,2217.75L10269.6,2201.91L10263.9,2189.47L10260.5,2171.37L10254.8,2157.79L10246.9,2143.08L10239,2130.64L10230,2114.8L10222,2102.35L10211.9,2092.17L10201.7,2078.6L10191.5,2069.54L10179,2059.36L10165.5,2052.57L10154.2,2042.39L10139.4,2037.87L10123.6,2033.34L10110,2028.82L10095.3,2024.29L10079.5,2025.42L10048.9,2023.16L10035.4,2026.55L10018.4,2027.68L10004.8,2032.21L9990.11,2037.87L9976.53,2043.52L9961.82,2050.31L9947.11,2060.49L9934.67,2069.54L9924.49,2079.73L9913.17,2093.3L9902.99,2103.49L9895.07,2115.93L9884.89,2129.51L9880.36,2146.48L9871.31,2158.92L9864.52,2173.63L9858.87,2189.47L9856.61,2203.05L9852.08,2220.01L9846.42,2234.72L9844.16,2251.69L9838.5,2266.4L9836.24,2281.11L9836.24,2296.95L9831.72,2315.05L9831.72,2329.76L9828.32,2346.73L9826.06,2362.57L9828.32,2376.14L9827.19,2391.98L9823.8,2410.08L9826.06,2425.92L9824.93,2440.63L9824.93,2490.41L9823.8,2506.25L9824.93,2523.22L9828.32,2539.06L9827.19,2554.9L9829.45,2573L9830.59,2589.97L9832.85,2605.81L9837.37,2622.78L9840.77,2637.49L9845.29,2656.72L9848.69,2670.3L9850.95,2688.4L9856.61,2700.84L9864.52,2716.68L9871.31,2733.65L9878.1,2747.23L9886.02,2759.67L9893.94,2773.25L9901.86,2784.56L9912.04,2795.88L9924.49,2807.19L9933.54,2816.24L9945.98,2825.29L9958.43,2833.21L9973.14,2841.13L9985.58,2844.53L10001.4,2849.05L10016.1,2852.45L10029.7,2854.71L10043.3,2855.84Z" style="fill:rgb(230,252,255);fill-rule:nonzero;"/>
            <path d="M10563.7,2856.97L10594.3,2858.1L10612.4,2855.84L10627.1,2854.71L10640.6,2849.05L10655.3,2846.79L10668.9,2840L10685.9,2832.08L10698.3,2821.9L10722.1,2801.53L10732.3,2792.48L10742.5,2780.04L10750.4,2766.46L10758.3,2751.75L10767.4,2735.91L10773,2721.21L10778.7,2708.76L10784.3,2691.79L10790,2678.22L10793.4,2661.24L10795.6,2645.41L10801.3,2629.57L10805.8,2597.89L10806.9,2582.05L10810.3,2568.47L10809.2,2551.5L10811.5,2536.8L10811.5,2522.09L10812.6,2503.99L10814.9,2489.28L10814.9,2473.44L10812.6,2439.5L10813.7,2423.66L10812.6,2408.95L10812.6,2393.11L10811.5,2375.01L10810.3,2360.3L10809.2,2344.47L10806.9,2327.49L10804.7,2311.66L10802.4,2294.68L10801.3,2279.98L10796.8,2261.88L10793.4,2247.17L10792.2,2231.33L10785.5,2214.36L10783.2,2200.78L10777.5,2183.81L10769.6,2169.1L10766.2,2154.4L10757.2,2141.95L10750.4,2128.38L10743.6,2115.93L10732.3,2103.49L10723.2,2091.04L10714.2,2077.46L10702.9,2069.54L10692.7,2058.23L10678,2050.31L10666.7,2042.39L10652,2037.87L10640.6,2032.21L10623.7,2028.82L10609,2025.42L10566,2024.29L10550.1,2027.68L10532,2029.95L10518.5,2035.6L10504.9,2039L10490.2,2049.18L10476.6,2057.1L10451.7,2077.46L10442.6,2087.65L10432.5,2100.09L10422.3,2114.8L10413.2,2128.38L10408.7,2143.08L10399.7,2158.92L10395.1,2171.37L10389.5,2187.21L10382.7,2201.91L10378.2,2217.75L10373.6,2234.72L10372.5,2248.3L10368,2266.4L10363.5,2279.98L10363.5,2296.95L10358.9,2312.79L10356.7,2327.49L10355.5,2344.47L10354.4,2360.3L10353.3,2378.41L10352.1,2393.11L10352.1,2488.15L10351,2506.25L10354.4,2522.09L10355.5,2536.8L10356.7,2553.77L10356.7,2571.87L10357.8,2586.58L10360.1,2603.55L10365.7,2619.39L10365.7,2636.36L10371.4,2652.19L10374.8,2666.9L10379.3,2680.48L10396.3,2727.99L10401.9,2741.57L10411,2756.28L10416.6,2767.59L10426.8,2780.04L10435.9,2793.61L10457.4,2815.11L10467.5,2823.03L10478.9,2832.08L10506,2845.66L10535.4,2852.45L10550.1,2858.1L10563.7,2856.97ZM10511.7,2466.65L10511.7,2433.84L10510.5,2419.13L10512.8,2404.43L10513.9,2385.19L10511.7,2370.49L10512.8,2353.51L10516.2,2337.68L10516.2,2321.84L10518.5,2307.13L10523,2291.29L10524.1,2275.45L10529.8,2260.74L10534.3,2243.77L10538.8,2229.07L10545.6,2216.62L10551.3,2204.18L10563.7,2192.86L10575,2186.07L10602.2,2187.21L10614.6,2195.12L10623.7,2207.57L10637.2,2236.99L10640.6,2249.43L10647.4,2264.14L10647.4,2282.24L10652,2296.95L10652,2310.52L10655.3,2326.36L10656.5,2343.33L10656.5,2358.04L10657.6,2372.75L10657.6,2390.85L10658.7,2404.43L10659.9,2421.4L10658.7,2436.11L10659.9,2467.78L10658.7,2484.75L10658.7,2501.72L10656.5,2516.43L10657.6,2533.4L10654.2,2550.37L10654.2,2583.18L10650.8,2599.02L10647.4,2613.73L10645.2,2628.44L10644,2645.41L10637.2,2660.11L10635,2675.95L10628.2,2690.66L10621.4,2700.84L10611.2,2711.03L10601,2716.68L10571.6,2717.81L10558,2708.76L10547.9,2698.58L10538.8,2683.87L10529.8,2654.46L10525.2,2640.88L10520.7,2623.91L10518.5,2606.94L10516.2,2594.49L10517.3,2578.66L10512.8,2561.69L10513.9,2546.98L10511.7,2530.01L10510.5,2515.3L10510.5,2482.49L10511.7,2466.65Z" style="fill:rgb(230,252,255);fill-rule:nonzero;"/>
            <path d="M10994.8,2835.47L11025.3,2836.61L11037.7,2838.87L11054.7,2836.61L11069.4,2836.61L11084.1,2838.87L11113.5,2837.74L11126,2829.82L11136.2,2820.77L11139.6,2806.06L11143,2776.64L11140.7,2760.8L11140.7,2744.97L11141.8,2730.26L11139.6,2698.58L11141.8,2682.74L11140.7,2666.9L11140.7,2636.36L11139.6,2620.52L11141.8,2604.68L11140.7,2587.71L11140.7,2571.87L11141.8,2556.03L11139.6,2541.32L11140.7,2525.48L11139.6,2508.51L11139.6,2492.67L11140.7,2477.97L11140.7,2397.64L11141.8,2382.93L11143,2367.09L11141.8,2351.25L11143,2335.41L11143,2318.44L11140.7,2304.87L11141.8,2287.9L11141.8,2273.19L11140.7,2256.22L11141.8,2242.64L11146.4,2208.7L11157.7,2196.26L11191.6,2193.99L11210.8,2195.12L11242.5,2193.99L11253.8,2191.73L11265.1,2182.68L11273.1,2169.1L11275.3,2136.29L11274.2,2120.45L11275.3,2106.88L11273.1,2076.33L11265.1,2060.49L11255,2052.57L11242.5,2045.79L11213.1,2043.52L11196.1,2044.65L11179.2,2042.39L11163.3,2044.65L11148.6,2044.65L11130.5,2042.39L11115.8,2042.39L11098.8,2043.52L11085.3,2044.65L11068.3,2042.39L11053.6,2044.65L11036.6,2042.39L11020.8,2042.39L11003.8,2044.65L10986.8,2044.65L10972.1,2042.39L10956.3,2044.65L10938.2,2043.52L10922.3,2043.52L10907.6,2042.39L10892.9,2043.52L10862.4,2045.79L10847.7,2050.31L10838.6,2061.62L10830.7,2075.2L10829.6,2104.62L10830.7,2122.72L10830.7,2136.29L10833,2167.97L10839.8,2182.68L10849.9,2190.6L10863.5,2193.99L10912.2,2193.99L10950.6,2196.26L10963.1,2209.83L10966.5,2242.64L10965.3,2259.61L10966.5,2273.19L10967.6,2287.9L10966.5,2306L10967.6,2319.58L10965.3,2335.41L10967.6,2353.51L10966.5,2367.09L10967.6,2384.06L10966.5,2401.03L10966.5,2414.61L10965.3,2430.45L10967.6,2445.16L10965.3,2462.13L10966.5,2476.83L10966.5,2493.8L10967.6,2510.77L10967.6,2557.16L10965.3,2574.13L10966.5,2589.97L10965.3,2604.68L10965.3,2618.25L10966.5,2634.09L10965.3,2652.19L10967.6,2665.77L10967.6,2682.74L10966.5,2697.45L10965.3,2715.55L10966.5,2730.26L10965.3,2744.97L10965.3,2776.64L10967.6,2807.19L10971,2820.77L10980,2830.95L10994.8,2835.47Z" style="fill:rgb(230,252,255);fill-rule:nonzero;"/>
            <path d="M11483.5,2835.47L11514,2836.61L11526.5,2838.87L11543.5,2836.61L11558.2,2836.61L11572.9,2838.87L11602.3,2837.74L11614.7,2829.82L11624.9,2820.77L11628.3,2806.06L11631.7,2776.64L11629.4,2760.8L11629.4,2744.97L11630.6,2730.26L11628.3,2698.58L11630.6,2682.74L11629.4,2666.9L11629.4,2636.36L11628.3,2620.52L11630.6,2604.68L11629.4,2587.71L11629.4,2571.87L11630.6,2556.03L11628.3,2541.32L11629.4,2525.48L11628.3,2508.51L11628.3,2492.67L11629.4,2477.97L11629.4,2397.64L11630.6,2382.93L11631.7,2367.09L11630.6,2351.25L11631.7,2335.41L11631.7,2318.44L11629.4,2304.87L11630.6,2287.9L11630.6,2273.19L11629.4,2256.22L11630.6,2242.64L11635.1,2208.7L11646.4,2196.26L11680.4,2193.99L11699.6,2195.12L11731.3,2193.99L11742.6,2191.73L11753.9,2182.68L11761.8,2169.1L11764.1,2136.29L11762.9,2120.45L11764.1,2106.88L11761.8,2076.33L11753.9,2060.49L11743.7,2052.57L11731.3,2045.79L11701.9,2043.52L11684.9,2044.65L11667.9,2042.39L11652.1,2044.65L11637.4,2044.65L11619.3,2042.39L11604.6,2042.39L11587.6,2043.52L11574,2044.65L11557,2042.39L11542.3,2044.65L11525.4,2042.39L11509.5,2042.39L11492.6,2044.65L11475.6,2044.65L11460.9,2042.39L11445,2044.65L11426.9,2043.52L11411.1,2043.52L11396.4,2042.39L11381.7,2043.52L11351.1,2045.79L11336.4,2050.31L11327.4,2061.62L11319.5,2075.2L11318.3,2104.62L11319.5,2122.72L11319.5,2136.29L11321.7,2167.97L11328.5,2182.68L11338.7,2190.6L11352.3,2193.99L11400.9,2193.99L11439.4,2196.26L11451.8,2209.83L11455.2,2242.64L11454.1,2259.61L11455.2,2273.19L11456.3,2287.9L11455.2,2306L11456.3,2319.58L11454.1,2335.41L11456.3,2353.51L11455.2,2367.09L11456.3,2384.06L11455.2,2401.03L11455.2,2414.61L11454.1,2430.45L11456.3,2445.16L11454.1,2462.13L11455.2,2476.83L11455.2,2493.8L11456.3,2510.77L11456.3,2557.16L11454.1,2574.13L11455.2,2589.97L11454.1,2604.68L11454.1,2618.25L11455.2,2634.09L11454.1,2652.19L11456.3,2665.77L11456.3,2682.74L11455.2,2697.45L11454.1,2715.55L11455.2,2730.26L11454.1,2744.97L11454.1,2776.64L11456.3,2807.19L11459.7,2820.77L11468.8,2830.95L11483.5,2835.47Z" style="fill:rgb(230,252,255);fill-rule:nonzero;"/>
            <path d="M11838.7,2834.34L11869.3,2835.47L11887.4,2837.74L11949.6,2837.74L11965.5,2834.34L11982.4,2836.61L11999.4,2834.34L12029.9,2836.61L12048.1,2834.34L12061.6,2836.61L12080.9,2834.34L12094.4,2835.47L12111.4,2836.61L12126.1,2835.47L12144.2,2835.47L12160.1,2836.61L12175.9,2836.61L12191.7,2834.34L12222.3,2834.34L12237,2828.69L12247.2,2820.77L12252.8,2807.19L12258.5,2778.91L12256.2,2763.07L12256.2,2749.49L12254,2718.95L12247.2,2706.5L12235.9,2696.32L12222.3,2690.66L12191.7,2690.66L12175.9,2692.92L12162.3,2691.79L12146.5,2692.92L12129.5,2691.79L12113.7,2692.92L12099,2692.92L12069.5,2689.53L12057.1,2681.61L12051.4,2668.03L12060.5,2639.75L12065,2623.91L12071.8,2610.33L12075.2,2594.49L12083.1,2580.92L12086.5,2566.21L12094.4,2551.5L12097.8,2535.66L12102.4,2523.22L12110.3,2508.51L12113.7,2493.8L12120.5,2476.83L12125,2463.26L12130.6,2448.55L12137.4,2434.97L12140.8,2418L12147.6,2405.56L12152.1,2389.72L12158.9,2375.01L12163.4,2360.3L12171.4,2346.73L12175.9,2333.15L12182.7,2318.44L12186.1,2301.47L12191.7,2286.76L12197.4,2273.19L12203,2257.35L12208.7,2244.91L12214.4,2230.2L12222.3,2214.36L12227.9,2200.78L12233.6,2184.94L12237,2169.1L12243.8,2154.4L12248.3,2141.95L12252.8,2124.98L12259.6,2110.27L12269.8,2083.12L12267.5,2065.02L12257.4,2054.84L12241.5,2048.05L12212.1,2046.92L12196.3,2046.92L12181.6,2045.79L12163.4,2046.92L12148.7,2048.05L12101.2,2048.05L12085.4,2045.79L12070.7,2046.92L12024.3,2046.92L12008.5,2044.65L11991.5,2045.79L11977.9,2045.79L11963.2,2046.92L11945.1,2044.65L11931.5,2045.79L11914.5,2044.65L11897.6,2045.79L11882.9,2043.52L11853.5,2045.79L11838.7,2050.31L11827.4,2058.23L11822.9,2071.81L11818.4,2103.49L11818.4,2131.77L11821.8,2162.32L11828.6,2172.5L11841,2183.81L11852.3,2189.47L11884,2190.6L11901,2187.21L11919.1,2189.47L11933.8,2187.21L11951.9,2186.07L11968.9,2188.34L11984.7,2186.07L12000.5,2186.07L12032.2,2188.34L12042.4,2197.39L12048.1,2213.23L12036.7,2242.64L12031.1,2256.22L12022,2285.63L12014.1,2302.6L12008.5,2315.05L12002.8,2329.76L11999.4,2345.6L11991.5,2359.17L11987,2375.01L11980.2,2389.72L11973.4,2403.3L11966.6,2418L11963.2,2433.84L11956.4,2449.68L11949.6,2464.39L11944,2479.1L11937.2,2491.54L11931.5,2506.25L11927,2522.09L11919.1,2535.66L11913.4,2551.5L11910,2567.34L11901,2580.92L11895.3,2596.76L11889.7,2610.33L11884,2626.17L11878.3,2640.88L11865.9,2668.03L11860.2,2682.74L11852.3,2697.45L11846.7,2713.29L11843.3,2727.99L11834.2,2741.57L11830.8,2755.15L11824,2772.12L11812.7,2801.53L11815,2816.24L11825.2,2828.69L11838.7,2834.34Z" style="fill:rgb(230,252,255);fill-rule:nonzero;"/>
            <path d="M12481.4,2045.79L12451.9,2044.65L12436.1,2042.39L12423.7,2044.65L12409,2043.52L12393.1,2044.65L12364.8,2044.65L12349,2051.44L12341.1,2062.76L12335.4,2076.33L12333.2,2105.75L12335.4,2119.32L12333.2,2137.43L12333.2,2186.07L12335.4,2199.65L12335.4,2281.11L12334.3,2295.82L12336.5,2313.92L12336.5,2328.62L12335.4,2343.33L12336.5,2361.43L12336.5,2376.14L12334.3,2394.24L12336.5,2408.95L12336.5,2423.66L12334.3,2439.5L12336.5,2456.47L12335.4,2474.57L12335.4,2503.99L12334.3,2522.09L12334.3,2537.93L12336.5,2554.9L12335.4,2570.74L12335.4,2586.58L12336.5,2602.41L12335.4,2617.12L12336.5,2635.22L12334.3,2649.93L12335.4,2666.9L12335.4,2697.45L12333.2,2731.39L12334.3,2744.97L12333.2,2760.8L12333.2,2808.32L12341.1,2821.9L12349,2830.95L12363.7,2836.61L12394.2,2838.87L12406.7,2837.74L12437.2,2840L12481.4,2836.61L12493.8,2829.82L12504,2821.9L12509.6,2806.06L12511.9,2777.78L12509.6,2746.1L12510.8,2727.99L12510.8,2698.58L12509.6,2681.61L12510.8,2665.77L12509.6,2651.06L12510.8,2632.96L12510.8,2618.25L12509.6,2602.41L12508.5,2584.31L12508.5,2569.61L12510.8,2553.77L12508.5,2535.66L12508.5,2488.15L12509.6,2472.31L12509.6,2458.73L12508.5,2439.5L12509.6,2424.79L12508.5,2407.82L12508.5,2393.11L12510.8,2375.01L12510.8,2343.33L12509.6,2327.49L12508.5,2313.92L12509.6,2295.82L12509.6,2279.98L12510.8,2264.14L12510.8,2249.43L12508.5,2231.33L12509.6,2214.36L12511.9,2199.65L12510.8,2184.94L12509.6,2169.1L12509.6,2153.26L12511.9,2121.59L12509.6,2104.62L12510.8,2075.2L12506.2,2060.49L12493.8,2052.57L12481.4,2045.79Z" style="fill:rgb(230,252,255);fill-rule:nonzero;"/>
            <path d="M12628.4,2837.74L12659,2840L12676,2837.74L12691.8,2840L12740.4,2835.47L12754,2830.95L12761.9,2819.64L12769.9,2806.06L12768.7,2777.78L12769.9,2760.8L12768.7,2747.23L12767.6,2729.13L12769.9,2715.55L12767.6,2698.58L12768.7,2682.74L12767.6,2669.16L12768.7,2653.33L12767.6,2637.49L12769.9,2621.65L12769.9,2592.23L12777.8,2578.66L12799.3,2575.26L12804.9,2589.97L12812.8,2619.39L12814,2635.22L12818.5,2651.06L12825.3,2665.77L12829.8,2681.61L12836.6,2696.32L12842.3,2712.16L12852.4,2723.47L12859.2,2738.18L12869.4,2750.62L12878.5,2764.2L12888.6,2775.51L12902.2,2786.83L12913.5,2795.88L12927.1,2803.8L12952,2821.9L12983.7,2833.21L12998.4,2836.61L13012,2840L13044.8,2841.13L13060.6,2835.47L13070.8,2819.64L13082.1,2789.09L13084.4,2776.64L13086.6,2763.07L13090,2748.36L13091.2,2733.65L13095.7,2701.97L13088.9,2685L13074.2,2677.08L13041.4,2662.38L13028.9,2656.72L13016.5,2645.41L12996.1,2622.78L12987.1,2608.07L12979.2,2593.36L12971.2,2579.79L12965.6,2562.82L12959.9,2532.27L12966.7,2518.69L12987.1,2494.93L12997.3,2481.36L13007.4,2470.05L13015.4,2456.47L13025.5,2444.02L13033.5,2431.58L13039.1,2416.87L13044.8,2401.03L13049.3,2386.33L13052.7,2370.49L13056.1,2355.78L13056.1,2341.07L13058.4,2322.97L13056.1,2292.42L13057.2,2277.71L13056.1,2261.88L13051.6,2243.77L13050.4,2227.93L13047,2213.23L13043.6,2199.65L13035.7,2182.68L13028.9,2170.24L13021,2156.66L13014.2,2143.08L13004,2129.51L12992.7,2118.19L12980.3,2106.88L12970.1,2098.96L12955.4,2089.91L12941.8,2083.12L12926,2076.33L12912.4,2068.41L12895.4,2065.02L12883,2060.49L12866,2054.84L12835.5,2049.18L12818.5,2049.18L12802.7,2045.79L12785.7,2045.79L12768.7,2044.65L12721.2,2046.92L12706.5,2046.92L12688.4,2045.79L12626.2,2045.79L12614.9,2053.7L12605.8,2063.89L12597.9,2077.46L12599,2104.62L12596.8,2120.45L12596.8,2136.29L12597.9,2153.26L12597.9,2184.94L12599,2200.78L12597.9,2218.88L12599,2234.72L12599,2250.56L12600.2,2265.27L12599,2282.24L12599,2295.82L12600.2,2312.79L12599,2328.62L12601.3,2344.47L12600.2,2360.3L12601.3,2376.14L12601.3,2393.11L12600.2,2410.08L12601.3,2427.05L12599,2442.89L12599,2458.73L12601.3,2473.44L12600.2,2489.28L12600.2,2506.25L12599,2523.22L12601.3,2536.8L12599,2553.77L12600.2,2570.74L12597.9,2585.44L12599,2602.41L12599,2634.09L12597.9,2651.06L12597.9,2665.77L12600.2,2683.87L12597.9,2697.45L12600.2,2713.29L12597.9,2731.39L12597.9,2744.97L12599,2760.8L12596.8,2776.64L12599,2807.19L12604.7,2820.77L12613.7,2829.82L12628.4,2837.74ZM12768.7,2395.38L12768.7,2364.83L12767.6,2348.99L12767.6,2285.63L12768.7,2268.66L12768.7,2252.82L12767.6,2240.38L12767.6,2222.28L12776.6,2196.26L12789.1,2190.6L12818.5,2191.73L12849.1,2201.91L12860.4,2209.83L12872.8,2217.75L12884.1,2231.33L12888.6,2244.91L12894.3,2260.74L12898.8,2277.71L12898.8,2324.1L12894.3,2358.04L12886.4,2370.49L12876.2,2386.33L12863.8,2394.24L12850.2,2403.3L12834.3,2410.08L12820.8,2412.35L12789.1,2413.48L12775.5,2407.82L12768.7,2395.38Z" style="fill:rgb(230,252,255);fill-rule:nonzero;"/>
            <path d="M13294.8,2046.92L13266.5,2043.52L13252.9,2044.65L13206.6,2044.65L13177.1,2045.79L13164.7,2050.31L13154.5,2062.76L13148.9,2075.2L13148.9,2121.59L13150,2137.43L13148.9,2154.4L13147.7,2169.1L13150,2183.81L13147.7,2217.75L13151.1,2232.46L13150,2247.17L13151.1,2263.01L13148.9,2279.98L13148.9,2296.95L13151.1,2312.79L13151.1,2328.62L13148.9,2344.47L13151.1,2360.3L13150,2378.41L13151.1,2394.24L13148.9,2407.82L13151.1,2441.76L13151.1,2458.73L13150,2472.31L13151.1,2490.41L13151.1,2522.09L13150,2537.93L13150,2554.9L13148.9,2569.61L13151.1,2585.44L13150,2602.41L13151.1,2617.12L13150,2635.22L13150,2664.64L13147.7,2680.48L13148.9,2698.58L13147.7,2713.29L13150,2744.97L13148.9,2763.07L13147.7,2778.91L13148.9,2806.06L13155.7,2820.77L13164.7,2830.95L13177.1,2835.47L13223.5,2840L13251.8,2840L13266.5,2838.87L13295.9,2835.47L13308.4,2830.95L13320.8,2821.9L13325.4,2806.06L13326.5,2776.64L13324.2,2760.8L13324.2,2744.97L13325.4,2729.13L13325.4,2698.58L13324.2,2683.87L13324.2,2669.16L13326.5,2652.19L13325.4,2637.49L13326.5,2621.65L13328.7,2586.58L13354.8,2577.53L13361.6,2589.97L13366.1,2620.52L13370.6,2635.22L13374,2652.19L13378.5,2664.64L13385.3,2681.61L13391,2697.45L13397.8,2712.16L13404.6,2725.73L13413.6,2739.31L13423.8,2751.75L13435.1,2761.94L13444.1,2774.38L13455.5,2784.56L13466.8,2795.88L13480.4,2806.06L13493.9,2812.85L13508.6,2820.77L13522.2,2826.42L13536.9,2833.21L13551.6,2837.74L13567.5,2841.13L13601.4,2841.13L13615,2833.21L13626.3,2821.9L13635.3,2791.35L13639.9,2776.64L13641,2760.8L13643.3,2747.23L13646.7,2731.39L13648.9,2699.71L13641,2686.14L13627.4,2674.82L13596.9,2662.38L13585.6,2654.46L13573.1,2646.54L13560.7,2635.22L13549.4,2623.91L13541.4,2609.2L13533.5,2595.63L13529,2582.05L13523.3,2568.47L13515.4,2551.5L13514.3,2537.93L13509.8,2522.09L13506.4,2506.25L13505.2,2491.54L13508.6,2467.78L13525.6,2446.29L13532.4,2431.58L13540.3,2419.13L13544.8,2402.16L13552.8,2389.72L13556.2,2375.01L13562.9,2359.17L13567.5,2344.47L13569.7,2327.49L13574.3,2312.79L13577.6,2296.95L13578.8,2282.24L13583.3,2264.14L13585.6,2248.3L13584.4,2234.72L13586.7,2216.62L13590.1,2200.78L13587.8,2186.07L13590.1,2170.24L13590.1,2154.4L13592.4,2138.56L13592.4,2105.75L13589,2077.46L13584.4,2061.62L13574.3,2052.57L13559.5,2046.92L13531.3,2045.79L13513.2,2043.52L13497.3,2044.65L13483.7,2043.52L13450.9,2044.65L13436.2,2051.44L13427.2,2061.62L13422.7,2076.33L13420.4,2109.14L13421.5,2126.11L13421.5,2141.95L13420.4,2158.92L13420.4,2175.89L13417,2191.73L13417,2207.57L13414.7,2223.41L13413.6,2238.12L13405.7,2269.8L13402.3,2284.5L13397.8,2302.6L13395.5,2316.18L13389.8,2329.76L13381.9,2344.47L13375.1,2353.51L13353.6,2375.01L13336.7,2375.01L13328.7,2359.17L13325.4,2326.36L13326.5,2312.79L13325.4,2295.82L13325.4,2279.98L13324.2,2264.14L13325.4,2248.3L13325.4,2231.33L13324.2,2214.36L13326.5,2200.78L13325.4,2182.68L13325.4,2151L13324.2,2137.43L13325.4,2121.59L13324.2,2103.49L13326.5,2074.07L13320.8,2060.49L13310.6,2051.44L13294.8,2046.92Z" style="fill:rgb(230,252,255);fill-rule:nonzero;"/>
            <path d="M13738.3,2835.47L13768.8,2836.61L13800.5,2834.34L13817.5,2835.47L13831.1,2833.21L13849.2,2834.34L13865,2834.34L13880.9,2835.47L13940.8,2835.47L13958.9,2834.34L13973.6,2835.47L13990.6,2834.34L14004.2,2834.34L14022.3,2835.47L14051.7,2835.47L14066.4,2830.95L14078.8,2820.77L14084.5,2806.06L14084.5,2774.38L14085.6,2760.8L14084.5,2743.83L14082.2,2712.16L14078.8,2700.84L14065.3,2691.79L14051.7,2686.14L14023.4,2685L13978.1,2685L13963.4,2683.87L13936.3,2686.14L13901.2,2679.35L13891,2668.03L13887.6,2635.22L13886.5,2618.25L13887.6,2602.41L13886.5,2588.84L13885.4,2574.13L13885.4,2540.19L13888.8,2507.38L13902.3,2494.93L13934,2491.54L13948.7,2490.41L13965.7,2490.41L13995.1,2489.28L14007.6,2483.62L14018.9,2473.44L14024.5,2462.13L14025.7,2428.18L14023.4,2397.64L14017.7,2386.33L14008.7,2376.14L13994,2368.22L13964.6,2369.35L13949.9,2368.22L13932.9,2370.49L13901.2,2365.96L13887.6,2351.25L13886.5,2316.18L13884.2,2299.21L13886.5,2282.24L13885.4,2266.4L13886.5,2250.56L13887.6,2214.36L13899,2204.18L13931.8,2198.52L13947.6,2198.52L13963.4,2199.65L13979.3,2197.39L13995.1,2198.52L14009.8,2196.26L14025.7,2197.39L14040.4,2198.52L14072.1,2196.26L14085.6,2191.73L14095.8,2182.68L14102.6,2169.1L14102.6,2138.56L14104.9,2123.85L14103.7,2108.01L14101.5,2075.2L14096.9,2062.76L14086.8,2052.57L14070.9,2048.05L14041.5,2046.92L14024.5,2046.92L14008.7,2045.79L13977,2046.92L13960,2049.18L13929.5,2046.92L13911.4,2049.18L13896.7,2046.92L13879.7,2049.18L13865,2048.05L13846.9,2049.18L13832.2,2046.92L13816.4,2046.92L13801.7,2045.79L13785.8,2046.92L13738.3,2046.92L13725.9,2053.7L13713.4,2061.62L13707.8,2077.46L13707.8,2106.88L13706.6,2120.45L13706.6,2136.29L13708.9,2154.4L13710,2170.24L13707.8,2187.21L13707.8,2201.91L13710,2218.88L13710,2281.11L13708.9,2296.95L13710,2312.79L13708.9,2328.62L13711.1,2345.6L13711.1,2362.57L13710,2378.41L13708.9,2393.11L13711.1,2410.08L13711.1,2440.63L13710,2457.6L13710,2473.44L13711.1,2490.41L13710,2503.99L13708.9,2522.09L13708.9,2537.93L13711.1,2552.64L13711.1,2570.74L13708.9,2584.31L13708.9,2617.12L13710,2634.09L13708.9,2651.06L13710,2665.77L13707.8,2681.61L13710,2697.45L13707.8,2714.42L13710,2729.13L13707.8,2744.97L13707.8,2760.8L13708.9,2775.51L13710,2807.19L13713.4,2818.5L13722.5,2829.82L13738.3,2835.47Z" style="fill:rgb(230,252,255);fill-rule:nonzero;"/>
            <path d="M14311.9,2044.65L14283.6,2043.52L14268.9,2043.52L14254.2,2044.65L14238.4,2042.39L14223.7,2044.65L14193.1,2044.65L14180.7,2052.57L14169.3,2060.49L14166,2076.33L14166,2104.62L14164.8,2121.59L14164.8,2137.43L14166,2152.13L14163.7,2169.1L14163.7,2184.94L14166,2201.91L14166,2231.33L14167.1,2247.17L14167.1,2265.27L14164.8,2294.68L14166,2313.92L14166,2328.62L14167.1,2344.47L14167.1,2391.98L14164.8,2407.82L14164.8,2424.79L14166,2439.5L14166,2471.18L14164.8,2489.28L14167.1,2506.25L14166,2522.09L14166,2535.66L14164.8,2553.77L14164.8,2568.47L14166,2586.58L14167.1,2601.28L14164.8,2617.12L14164.8,2649.93L14163.7,2665.77L14166,2681.61L14164.8,2698.58L14166,2712.16L14163.7,2729.13L14163.7,2746.1L14164.8,2759.67L14164.8,2777.78L14166,2807.19L14169.3,2820.77L14181.8,2828.69L14193.1,2834.34L14224.8,2835.47L14241.8,2835.47L14258.7,2834.34L14306.2,2834.34L14324.3,2836.61L14339.1,2836.61L14356,2834.34L14370.7,2836.61L14388.8,2835.47L14403.5,2834.34L14419.4,2834.34L14437.5,2836.61L14452.2,2834.34L14485,2834.34L14496.3,2829.82L14507.6,2818.5L14513.3,2807.19L14516.7,2777.78L14514.4,2764.2L14515.5,2749.49L14514.4,2716.68L14506.5,2705.37L14495.2,2694.05L14481.6,2689.53L14452.2,2690.66L14436.4,2689.53L14422.8,2692.92L14404.7,2691.79L14388.8,2691.79L14357.2,2688.4L14345.8,2675.95L14340.2,2644.28L14340.2,2629.57L14339.1,2612.6L14341.3,2595.63L14339.1,2580.92L14340.2,2566.21L14340.2,2548.11L14337.9,2534.53L14340.2,2517.56L14337.9,2501.72L14339.1,2484.75L14340.2,2468.91L14337.9,2453.08L14339.1,2437.24L14340.2,2423.66L14340.2,2358.04L14339.1,2342.2L14340.2,2326.36L14340.2,2293.55L14339.1,2278.85L14341.3,2264.14L14339.1,2247.17L14339.1,2232.46L14340.2,2214.36L14340.2,2184.94L14341.3,2167.97L14341.3,2152.13L14342.4,2137.43L14342.4,2105.75L14341.3,2074.07L14336.8,2061.62L14324.3,2051.44L14311.9,2044.65Z" style="fill:rgb(230,252,255);fill-rule:nonzero;"/>
        </g>
    </g>
</svg>
