<?xml version="1.0" encoding="UTF-8" standalone="no"?>
<!DOCTYPE svg PUBLIC "-//W3C//DTD SVG 1.1//EN" "http://www.w3.org/Graphics/SVG/1.1/DTD/svg11.dtd">
<svg width="100%" height="100%" viewBox="0 0 657 702" version="1.1" xmlns="http://www.w3.org/2000/svg" xmlns:xlink="http://www.w3.org/1999/xlink" xml:space="preserve" xmlns:serif="http://www.serif.com/" style="fill-rule:evenodd;clip-rule:evenodd;stroke-linejoin:round;stroke-miterlimit:2;">
    <g transform="matrix(1,0,0,1,-510.737,-701.598)">
        <g transform="matrix(1,0,0,1,-48,417.892)">
            <g transform="matrix(1,0,0,1,209.665,0)">
                <path d="M1003.41,455.167C1006.22,574.351 1006.22,694.119 1003.41,813.309C1001.1,911.296 925.161,988.914 833.647,984.599C724.689,979.46 615.73,974.322 506.772,969.184C418.318,965.012 346.975,888.86 349.118,797.891C351.682,689.083 351.683,579.402 349.118,470.585C346.975,379.616 418.318,303.464 506.772,299.292C615.73,294.154 724.689,289.016 833.647,283.877C925.161,279.562 1001.1,357.18 1003.41,455.167Z" style="fill:rgb(230,252,255);"/>
            </g>
            <g transform="matrix(1,0,0,1,-711.211,-896.011)">
                <path d="M1703.53,1563.25C1714.3,1606.9 1732.34,1693.5 1707.38,1699C1673.92,1706.37 1656.27,1684.31 1656,1649C1655.86,1630.56 1660.15,1601.04 1667.9,1577.15C1679.43,1572.76 1691.5,1568.07 1703.53,1563.25Z" style="fill:rgb(235,48,39);"/>
            </g>
            <g transform="matrix(0.996398,-0.084803,0.084803,0.996398,-822.647,-769.408)">
                <ellipse cx="1434.5" cy="1375" rx="62.5" ry="75"/>
            </g>
            <g transform="matrix(0.976512,-0.215462,0.215462,0.976512,-967.358,-487.748)">
                <ellipse cx="1744.5" cy="1379" rx="36.5" ry="48"/>
            </g>
            <g transform="matrix(1,0,0,1,-711.211,-896.011)">
                <path d="M1603,1472C1603,1472 1810.69,1483.23 1811,1506C1811.31,1528.77 1591.12,1605.43 1591,1605C1590.88,1604.57 1566.85,1528.59 1603,1472Z" style="fill:rgb(255,144,17);"/>
            </g>
        </g>
    </g>
</svg>
